<svg xmlns="http://www.w3.org/2000/svg" xmlns:xlink="http://www.w3.org/1999/xlink" viewBox="0 0 576.63 377.39"><defs><style>.cls-1,.cls-5{fill:none;}.cls-2{opacity:0.08;}.cls-3{clip-path:url(#clip-path);}.cls-4{fill:#02172c;}.cls-5{stroke:#f5f7f9;stroke-miterlimit:10;stroke-width:2px;}</style><clipPath id="clip-path" transform="translate(0 0)"><rect class="cls-1" width="576.63" height="377.39"/></clipPath></defs><title>Asset 6</title><g id="Layer_2" data-name="Layer 2"><g id="Layer_1-2" data-name="Layer 1"><g class="cls-2"><g class="cls-3"><polygon class="cls-4" points="174.37 376.39 1.89 376.39 172.24 126.13 344.72 126.13 174.37 376.39"/><polygon class="cls-5" points="174.37 376.39 1.89 376.39 172.24 126.13 344.72 126.13 174.37 376.39"/><polygon class="cls-4" points="484.91 251.26 312.43 251.26 402.21 126.13 574.69 126.13 484.91 251.26"/><polygon class="cls-5" points="484.91 251.26 312.43 251.26 402.21 126.13 574.69 126.13 484.91 251.26"/><polygon class="cls-4" points="402.21 126.13 574.69 126.13 484.91 1 312.43 1 402.21 126.13"/><polygon class="cls-5" points="402.21 126.13 574.69 126.13 484.91 1 312.43 1 402.21 126.13"/><polygon class="cls-4" points="402.21 376.39 574.69 376.39 484.91 251.26 312.43 251.26 402.21 376.39"/><polygon class="cls-5" points="402.21 376.39 574.69 376.39 484.91 251.26 312.43 251.26 402.21 376.39"/></g></g></g></g></svg>