<svg xmlns="http://www.w3.org/2000/svg" viewBox="0 0 404.52 183.05"><title>Asset 2</title><g id="Layer_2" data-name="Layer 2"><g id="Layer_1-2" data-name="Layer 1"><path d="M35.76,8.64v6.59h-12v5a38,38,0,0,1,6.1-.49c6,0,10.53,1.3,13.44,3.57a13.58,13.58,0,0,1,5.13,10.85c0,4.65-2.21,10.1-9.18,12.8a30.12,30.12,0,0,1-10.47,1.57l-1.08-6.32c5.07-.11,13.12-.59,13.12-8C40.78,30.4,38.3,26,30.25,26a41.7,41.7,0,0,0-6.53.6v14c0,5.46-4,7-8.27,7-8.64,0-12-5.72-12-10.91,0-9.23,9-13,13.39-14.85V15.23H4.55V8.64H16.8V2.7h6.92V8.64ZM16.86,28.4c-2.43,1.25-6.75,3.35-6.75,7.73a4.56,4.56,0,0,0,4.75,4.53c2,0,2-.81,2-1.78ZM40.19,2.7a38.67,38.67,0,0,1,10.58,14l-6.1,3.72c-4-7.88-6.7-11.28-10-14.2Z"/><path d="M109.52,36.67c-3-.6-3.72-.7-5.07-1V50.38h-38V35.75c-1.35.27-3.67.81-4.75,1l-2.11-6.43A106.32,106.32,0,0,0,79.5,25.6,58.19,58.19,0,0,1,73.83,21a48.11,48.11,0,0,1-9.67,5.13l-2.81-5.4c11-4.1,14.58-8.85,16-10.74H68.21v6.31H61.57V4.05H82V.32h6.75V4.05h20.79V16.42h-6.75V9.94H78.2L84,11c-.32.49-1.08,1.46-1.35,1.78h18.69v4.81a38.72,38.72,0,0,1-9.45,8.32,79.18,79.18,0,0,0,19.6,4.1ZM98,38.93H73v6H98Zm-.92-5.13a56.27,56.27,0,0,1-11.5-4.42A73.88,73.88,0,0,1,73.72,33.8Zm-18.79-16A36,36,0,0,0,85.6,23a20.86,20.86,0,0,0,7.13-5.18Z"/><path d="M137,26.62l-2.76,4.21a20.53,20.53,0,0,1-2.7-4V51.19h-6.21V31.37a34.4,34.4,0,0,1-4.64,9.24l-2.16-9c3-4,5.24-8.2,6.59-15.76H119.4V9.83h5.94V.32h6.21V9.83h4.59v6.05h-4.59v1.89A24.9,24.9,0,0,0,137,25.54v-3h13.44V19.39H139.33V14.31h11.12V11.39H137.82V5.89h6.05A35.17,35.17,0,0,0,141.81,1l6.32-.75a30.33,30.33,0,0,1,2.43,5.67h6.75A26.61,26.61,0,0,0,159.2.22l6.48.81a30.57,30.57,0,0,1-2.05,4.86h5.89v5.5H156.88v2.92h11.39v5.08H156.88v3.18h13.55v5.67H156.88v1.51c.7,2.16,5.62,10.59,14.15,14L168.22,50a30.82,30.82,0,0,1-11.34-10.42v6.8c0,2.65-1,4.86-4.7,4.86h-6.91l-1-5.45a74.15,74.15,0,0,1-8.47,4.16l-2.16-5.84a73.09,73.09,0,0,0,13.55-6.26l1.19,5.51a25.58,25.58,0,0,1-2.49,1.51h2.87c1.13,0,1.72-.16,1.72-1.73V28.24H140.9a27.15,27.15,0,0,1,6.58,5.83l-4.32,4.27a28.76,28.76,0,0,0-6.53-5.78l3.89-4.32H137Zm33.69,5.29a28.44,28.44,0,0,1-5.88,6.16l-4.43-3.62A24.92,24.92,0,0,0,166,28.4Z"/><path d="M223,7v6.1H200.3A38.91,38.91,0,0,1,197.54,19c3.4-1.72,4.75-2.37,7.35-2.37,4.91,0,7.18,2.16,8.37,5.51C220,19.55,223,18.47,226,17.66l1.45,6.69a117.4,117.4,0,0,0-13,3.78c.05,1.14.22,2.81.22,5.4,0,1.79-.06,3-.11,3.95h-6.81a51.88,51.88,0,0,0,.17-6.65c-5.57,2.54-7.83,4.92-7.83,7.35,0,3.94,4.64,3.94,10.47,3.94a132,132,0,0,0,13.77-.7l.11,6.75c-4.27.22-8.59.38-12,.38-7.62,0-19.6-.27-19.6-9.56,0-7.35,9.18-11.88,14.2-14.26-.38-1-1-2.54-4-2.54-1.51,0-5,.54-9.5,5a103,103,0,0,1-7.35,9.4l-4.86-5a46.09,46.09,0,0,0,11.88-18.42h-10V7H195c.49-2.11.7-3.24,1-5.4l7.45.38c-.38,2.05-.65,3.08-1.14,5Z"/><path d="M285.56,14.42V28H266.88v3.62h20.84c-.27,9.56-.65,13.29-1.78,14.8a5.44,5.44,0,0,1-4.32,2h-8.48L271.9,41.9h6.59c1.83,0,2.1,0,2.37-5h-14v14.2H260.4V38.83a47.28,47.28,0,0,1-19.77,10.85l-2.8-6.37a52.43,52.43,0,0,0,17.22-6.37H239.82a61.24,61.24,0,0,0,3.3-13.72H260.4V19.6H240.69V14.42h.54l-3.57-4.05C242,7.07,244,4.64,245.93,0l6.69.81c-.38,1.19-.48,1.57-.92,2.65h11.13V8.59A22.91,22.91,0,0,0,268.12.05l6.43.81a19.3,19.3,0,0,1-.81,2.6H289V9.18h-9.61a28.36,28.36,0,0,1,1.84,3.29l-5.08,1.95Zm-34.45,0c-.76-2.43-1.62-4.43-1.94-5.24h-1a23.59,23.59,0,0,1-5,5.24ZM249,28a17.16,17.16,0,0,1-.7,3.62H260.4V28Zm16.47-13.55-4.7-3.78c.87-.81,1.08-1,1.57-1.46h-6.48a27.18,27.18,0,0,1,1.67,3.29l-5.78,1.95Zm9.34,0c-.54-1.24-1.4-3.46-2.27-5.24h-1.94A26.65,26.65,0,0,1,266,14.42ZM279,19.6H266.88v3.62H279Z"/><rect x="298.25" y="21.6" width="49.79" height="7.13"/><path d="M370.88,3.94c-.7,3.3-2.27,11.07-2.27,24.79,0,10.91,1,16.58,1.52,19.17l-7.56.54a104.37,104.37,0,0,1-1.3-18.52,150.88,150.88,0,0,1,2-26.52Zm13.83,23.49a11.43,11.43,0,0,0-2.6,6.54c0,4,4.59,4.53,9.72,4.53a122.42,122.42,0,0,0,12.69-.65v7.4a93.21,93.21,0,0,1-10.09.49c-9.94,0-19-1.24-19-10.75a17.88,17.88,0,0,1,2.81-9.34ZM403.5,14.36H377.09v-7H403.5Z"/><path d="M47.59,104.3c-.22,3.51-.81,10.86-2.11,13.67-1.19,2.54-3.73,3.78-6.86,3.78h-11l-1.14-6.16h10.8c2.33,0,2.49-1.4,3-5.56H8.16a63.53,63.53,0,0,0,4.7-8.86,93.76,93.76,0,0,1-10.15,3.94L0,98.69a114.22,114.22,0,0,0,19.87-7.83H.55V85H18.69V81H4.55V75.25H18.69V70.66h6.75v4.59H36.78V79a44.87,44.87,0,0,0,7-8.48L50,73.15A58,58,0,0,1,39.32,85H51.74v5.83h-20c-3.08,2-4.92,3.18-9.29,5.67a152.53,152.53,0,0,0,22.73-4.16l3.24,5.45c-2.37.6-11.61,2.87-28.83,4-.49,1.18-1,2.43-1,2.53ZM29.55,85a54.14,54.14,0,0,0,5.07-4H25.44v4Z"/><path d="M97.8,84.49v5.72c-5.29,4.05-5.88,4.54-11,8.69a8.68,8.68,0,0,1,2.43-.43c4.86,0,4.86,4.32,4.86,7v2c0,3.78.27,4.64,7.45,4.64,2.38,0,4.86-.27,6.48-.43l.22,7.07c-2,.11-4.1.22-7.78.22-6,0-13,0-13-8.16v-3c0-1.94,0-3.78-2.48-3.78a9.49,9.49,0,0,0-5.84,2.7c-3,2.65-8.26,8.48-11.82,12.37l-4.81-5.57L73,103.76C82.58,94.91,84.3,93.45,87.27,91l-21.06.43V84.59Zm.6-2.6C92,80.17,85.17,78.76,72.8,78.55l.7-6.11a119.13,119.13,0,0,1,25.92,2.92Z"/><path d="M121.46,117.37c1.83-4.32,5.56-13.17,8.58-31.21h-7.23V79.41h8.1c.32-3,.43-4,.59-6.48l7.51.27c-.49,3.94-.54,4.27-.81,6.21h13v6.75h-14c-3,16.15-6,27.05-8.42,33.48ZM148.62,104a7.37,7.37,0,0,0-1.68,4.11c0,3.08,3.68,3.78,11,3.78,1.45,0,6-.06,9.82-.43l.06,7.12c-2.22.06-5.13.11-9.78.11-7,0-10.63-.59-13.6-2.27a8.22,8.22,0,0,1-4.16-7,14.08,14.08,0,0,1,2.75-7.66Zm18.2-9.82c-1.52-.06-3.51-.17-5.94-.17a38.56,38.56,0,0,0-14.1,2.22l-2.48-6.05c6-2.38,10.26-3.24,22.52-3Z"/><path d="M195.92,100.74a38.52,38.52,0,0,1-4.48,1.62v14.42c0,4.1-3,5-4.75,5h-6.75l-.81-6.86h4.7c.91,0,1.18-.43,1.18-1.29V104.2c-2.37.7-3.56,1-5.77,1.45l-.87-6.91c2.49-.43,4-.75,6.64-1.4v-11h-6.26V80H185V70.77h6.38V80h4.86v6.37h-4.81v9.29c1.35-.38,2-.59,3.89-1.24Zm-3.78,16.58c3.19-2.86,5.89-7.67,6.81-16.26l6.26.92c-.38,2.65-.59,3.84-1,5.78,1.78,3.13,3.24,4.7,5.24,5.78V99.17H197V93.45h32.67v5.72H215.74v4.59h11.93v5.3H215.74v5.77h14.74l-1.35,6.38h-13c-5.94,0-10.64-1.89-13.88-7.08a28.15,28.15,0,0,1-5.13,7.67Zm35.43-26.57h-29.7V72.17h29.7ZM221.36,77H204.13v2.49h17.23Zm0,6.32H204.13v2.81h17.23Z"/><path d="M238.1,114.73c3.72-1,11.71-3.24,17.17-7H238.53V102.2h21.71V98.9h6.58v3.3H289v5.56h-16.9a51.36,51.36,0,0,0,17.61,6.91l-3.41,6.48c-10.74-3.35-16.63-7.94-19.44-10.47v10.85h-6.58v-10.8c-2.22,1.94-8.37,6.91-19.12,10.42Zm7.83-27.87V85.4h-6.32V73.9h20.57V70.5h6.91v3.4h20.79V85.4h-6.31v1.46h-3.89a20.14,20.14,0,0,1-4.81,5.46c5.08,1.13,9.88,2.59,13.66,3.72l-4.42,5.51A109.2,109.2,0,0,0,266.77,96c-3.83,1.73-12.15,3.73-23.92,4.32l-1.73-5.61a85.29,85.29,0,0,0,15.39-1.41c-4.1-.92-6.75-1.35-9-1.67A42,42,0,0,0,252,86.86Zm9.72-4.75c1.08-1.57,1.51-2.27,1.89-2.86H246.25v2.86Zm4.1,4.75a36.08,36.08,0,0,1-2.48,2.7c3.51.43,5.5.76,7.66,1.14A17.59,17.59,0,0,0,270,86.86Zm21.49-4.75V79.25h-16a28.83,28.83,0,0,1-1.83,2.86Z"/><path d="M341.83,77.52v6.1H319.1a38.91,38.91,0,0,1-2.76,5.83c3.4-1.72,4.75-2.37,7.35-2.37,4.91,0,7.18,2.16,8.37,5.51,6.75-2.54,9.77-3.62,12.69-4.43l1.45,6.69a117.4,117.4,0,0,0-13,3.78c.05,1.14.22,2.81.22,5.4,0,1.79-.06,3-.11,4h-6.81a51.88,51.88,0,0,0,.17-6.65c-5.57,2.54-7.83,4.92-7.83,7.35,0,3.94,4.64,3.94,10.47,3.94a132,132,0,0,0,13.77-.7l.11,6.75c-4.27.22-8.59.38-12,.38-7.62,0-19.6-.27-19.6-9.56,0-7.35,9.18-11.88,14.2-14.26-.38-1-1-2.54-4-2.54-1.51,0-5,.54-9.5,5a103,103,0,0,1-7.35,9.4L300,102a46.09,46.09,0,0,0,11.88-18.42h-10v-6.1h11.83c.49-2.11.7-3.24,1-5.4l7.45.38c-.38,2-.65,3.08-1.14,5Z"/><path d="M4.8,170.59a3.25,3.25,0,0,0-2.6,1.09,4.42,4.42,0,0,0-1,3,4.52,4.52,0,0,0,.92,3,3.3,3.3,0,0,0,2.63,1.07,9,9,0,0,0,2.38-.38v1a7.33,7.33,0,0,1-2.56.39,4.36,4.36,0,0,1-3.41-1.34A5.51,5.51,0,0,1,0,174.67,5.9,5.9,0,0,1,.58,172a4,4,0,0,1,1.67-1.79,5,5,0,0,1,2.56-.63,6.22,6.22,0,0,1,2.75.57l-.49,1a5.26,5.26,0,0,0-2.27-.53"/><path d="M11.65,172.19v4.86a2,2,0,0,0,.41,1.37,1.72,1.72,0,0,0,1.31.45,2.13,2.13,0,0,0,1.72-.64,3.27,3.27,0,0,0,.54-2.1v-3.94h1.14v7.49h-.94l-.16-1h-.06a2.36,2.36,0,0,1-1,.85,3.32,3.32,0,0,1-1.41.29,2.82,2.82,0,0,1-2.05-.65,2.77,2.77,0,0,1-.68-2.08v-4.9Z"/><path d="M25.41,177.64a1.86,1.86,0,0,1-.78,1.61,3.66,3.66,0,0,1-2.19.57,4.78,4.78,0,0,1-2.32-.47v-1a6.06,6.06,0,0,0,1.15.43,5.12,5.12,0,0,0,1.2.15,2.65,2.65,0,0,0,1.36-.28.94.94,0,0,0,.48-.86.91.91,0,0,0-.38-.75,5.93,5.93,0,0,0-1.48-.74,7.63,7.63,0,0,1-1.48-.68,1.89,1.89,0,0,1-.66-.66,1.74,1.74,0,0,1-.22-.88,1.66,1.66,0,0,1,.75-1.44,3.43,3.43,0,0,1,2-.53,6,6,0,0,1,2.37.49l-.4.92A5.48,5.48,0,0,0,22.8,173a2.3,2.3,0,0,0-1.21.25.77.77,0,0,0-.41.7.85.85,0,0,0,.15.51,1.59,1.59,0,0,0,.49.4,12.15,12.15,0,0,0,1.32.56,4.94,4.94,0,0,1,1.8,1,1.74,1.74,0,0,1,.47,1.24"/><path d="M31.07,178.88a3.6,3.6,0,0,0,.58,0l.45-.09v.87a2.28,2.28,0,0,1-.55.14,3.81,3.81,0,0,1-.64.06c-1.45,0-2.18-.76-2.18-2.29v-4.46H27.66v-.54l1.07-.47.48-1.6h.66v1.73H32v.88H29.87v4.41a1.54,1.54,0,0,0,.32,1,1.13,1.13,0,0,0,.88.36"/><path d="M41.46,175.93a4.15,4.15,0,0,1-.92,2.86,3.25,3.25,0,0,1-2.55,1,3.44,3.44,0,0,1-1.79-.47A3.16,3.16,0,0,1,35,178a4.78,4.78,0,0,1-.42-2.07,4.12,4.12,0,0,1,.91-2.85,3.25,3.25,0,0,1,2.55-1,3.16,3.16,0,0,1,2.5,1,4.15,4.15,0,0,1,.92,2.83m-5.71,0a3.51,3.51,0,0,0,.58,2.19,2,2,0,0,0,1.69.75,2,2,0,0,0,1.69-.75,3.57,3.57,0,0,0,.58-2.19,3.53,3.53,0,0,0-.58-2.17A2.06,2.06,0,0,0,38,173a2,2,0,0,0-1.68.73,3.52,3.52,0,0,0-.57,2.18"/><path d="M54.4,179.68v-4.87a2,2,0,0,0-.38-1.34,1.48,1.48,0,0,0-1.19-.45,1.92,1.92,0,0,0-1.57.61,2.92,2.92,0,0,0-.5,1.87v4.18H49.62v-4.87a2,2,0,0,0-.38-1.34A1.49,1.49,0,0,0,48,173a1.84,1.84,0,0,0-1.56.64,3.44,3.44,0,0,0-.49,2.09v3.93H44.85v-7.49h.92l.19,1h0a2.29,2.29,0,0,1,.91-.86,2.81,2.81,0,0,1,1.31-.3,2.21,2.21,0,0,1,2.29,1.27h.06a2.35,2.35,0,0,1,1-.93,3,3,0,0,1,1.45-.34,2.5,2.5,0,0,1,1.9.65,2.92,2.92,0,0,1,.64,2.09v4.88Z"/><path d="M62.44,179.82a3.45,3.45,0,0,1-2.62-1,3.93,3.93,0,0,1-1-2.81,4.31,4.31,0,0,1,.89-2.88,3,3,0,0,1,2.39-1.06,2.8,2.8,0,0,1,2.23.92,3.54,3.54,0,0,1,.82,2.45v.71H60a3,3,0,0,0,.67,2,2.31,2.31,0,0,0,1.78.68,6,6,0,0,0,2.39-.51v1a6.54,6.54,0,0,1-1.14.37,6.74,6.74,0,0,1-1.29.11M62.13,173a1.86,1.86,0,0,0-1.44.58,2.71,2.71,0,0,0-.63,1.63H64a2.49,2.49,0,0,0-.48-1.64,1.7,1.7,0,0,0-1.37-.57"/><path d="M72,172.06a4,4,0,0,1,.89.08l-.16,1.05a3.72,3.72,0,0,0-.82-.1,2,2,0,0,0-1.55.74,2.68,2.68,0,0,0-.65,1.83v4H68.53v-7.49h.93l.13,1.39h.06a3.36,3.36,0,0,1,1-1.13,2.33,2.33,0,0,1,1.3-.39"/><path d="M84.06,173.07H82.15v6.61H81v-6.61H79.67v-.51l1.34-.41v-.42c0-1.84.81-2.76,2.42-2.76a4.94,4.94,0,0,1,1.39.24l-.29.91a3.79,3.79,0,0,0-1.12-.21,1.07,1.07,0,0,0-1,.43,2.33,2.33,0,0,0-.31,1.37v.48h1.91Zm1.27-2.91a.74.74,0,0,1,.19-.57.68.68,0,0,1,.48-.18.67.67,0,0,1,.47.18.77.77,0,0,1,.2.57.74.74,0,0,1-.2.57.64.64,0,0,1-.47.19.65.65,0,0,1-.48-.19.74.74,0,0,1-.19-.57m1.23,9.52H85.42v-7.49h1.14Z"/><path d="M93.78,172.06a4.13,4.13,0,0,1,.9.08l-.16,1.05a3.72,3.72,0,0,0-.82-.1,2,2,0,0,0-1.55.74,2.63,2.63,0,0,0-.65,1.83v4H90.36v-7.49h.94l.13,1.39h.06a3.26,3.26,0,0,1,1-1.13,2.28,2.28,0,0,1,1.29-.39"/><path d="M102.31,177.64a1.86,1.86,0,0,1-.78,1.61,3.64,3.64,0,0,1-2.18.57,4.83,4.83,0,0,1-2.33-.47v-1a6.16,6.16,0,0,0,1.16.43,5,5,0,0,0,1.19.15,2.69,2.69,0,0,0,1.37-.28,1,1,0,0,0,.1-1.61,6.12,6.12,0,0,0-1.48-.74,7.79,7.79,0,0,1-1.49-.68,1.94,1.94,0,0,1-.65-.66A1.64,1.64,0,0,1,97,174a1.66,1.66,0,0,1,.75-1.44,3.39,3.39,0,0,1,2-.53,6,6,0,0,1,2.37.49l-.41.92a5.39,5.39,0,0,0-2-.46,2.34,2.34,0,0,0-1.22.25.79.79,0,0,0-.41.7.85.85,0,0,0,.15.51,1.65,1.65,0,0,0,.5.4,12.66,12.66,0,0,0,1.31.56,4.94,4.94,0,0,1,1.8,1,1.7,1.7,0,0,1,.47,1.24"/><path d="M108,178.88a3.69,3.69,0,0,0,.58,0l.44-.09v.87a2.06,2.06,0,0,1-.54.14,4,4,0,0,1-.65.06c-1.45,0-2.17-.76-2.17-2.29v-4.46h-1.07v-.54l1.07-.47.48-1.6h.65v1.73H109v.88h-2.18v4.41a1.49,1.49,0,0,0,.33,1,1.1,1.1,0,0,0,.88.36"/><path d="M123.45,172.6a2.82,2.82,0,0,1-1,2.34,4.72,4.72,0,0,1-3,.81h-1.18v3.93h-1.16v-10h2.59q3.75,0,3.75,2.91m-5.18,2.16h1a3.89,3.89,0,0,0,2.23-.5,1.85,1.85,0,0,0,.69-1.6,1.71,1.71,0,0,0-.65-1.48,3.39,3.39,0,0,0-2-.49h-1.3Z"/><path d="M130.18,172.06a4.13,4.13,0,0,1,.9.08l-.16,1.05a3.72,3.72,0,0,0-.82-.1,2,2,0,0,0-1.55.74,2.68,2.68,0,0,0-.65,1.83v4h-1.13v-7.49h.93l.13,1.39h.06a3.26,3.26,0,0,1,1-1.13,2.28,2.28,0,0,1,1.29-.39"/><path d="M140.35,175.93a4.1,4.1,0,0,1-.93,2.86,3.22,3.22,0,0,1-2.55,1,3.4,3.4,0,0,1-1.78-.47,3.1,3.1,0,0,1-1.2-1.35,4.64,4.64,0,0,1-.43-2.07,4.12,4.12,0,0,1,.92-2.85,3.24,3.24,0,0,1,2.54-1,3.16,3.16,0,0,1,2.5,1,4.11,4.11,0,0,1,.93,2.83m-5.71,0a3.58,3.58,0,0,0,.57,2.19,2.28,2.28,0,0,0,3.38,0,3.51,3.51,0,0,0,.58-2.19,3.46,3.46,0,0,0-.58-2.17,2,2,0,0,0-1.7-.74,2,2,0,0,0-1.68.73,3.52,3.52,0,0,0-.57,2.18"/><path d="M147.22,179.82a3.19,3.19,0,0,1-1.33-.27,2.49,2.49,0,0,1-1-.83h-.08a11,11,0,0,1,.08,1.24v3.09h-1.13V172.19h.92l.16,1h.05a2.6,2.6,0,0,1,1-.89,3.13,3.13,0,0,1,1.33-.27,2.75,2.75,0,0,1,2.3,1,4.51,4.51,0,0,1,.81,2.86,4.46,4.46,0,0,1-.82,2.87,2.78,2.78,0,0,1-2.29,1m-.16-6.8a2,2,0,0,0-1.66.64,3.26,3.26,0,0,0-.53,2v.25a3.75,3.75,0,0,0,.53,2.26,2,2,0,0,0,1.69.68,1.76,1.76,0,0,0,1.52-.79,3.75,3.75,0,0,0,.55-2.16,3.63,3.63,0,0,0-.55-2.15,1.82,1.82,0,0,0-1.55-.75"/><path d="M160.18,175.93a4.15,4.15,0,0,1-.92,2.86,3.25,3.25,0,0,1-2.55,1,3.4,3.4,0,0,1-1.78-.47,3.18,3.18,0,0,1-1.21-1.35,4.78,4.78,0,0,1-.42-2.07,4.12,4.12,0,0,1,.91-2.85,3.26,3.26,0,0,1,2.55-1,3.16,3.16,0,0,1,2.5,1,4.15,4.15,0,0,1,.92,2.83m-5.71,0a3.57,3.57,0,0,0,.58,2.19,2,2,0,0,0,1.69.75,2,2,0,0,0,1.69-.75,3.57,3.57,0,0,0,.58-2.19,3.53,3.53,0,0,0-.58-2.17,2,2,0,0,0-1.71-.74,2,2,0,0,0-1.68.73,3.52,3.52,0,0,0-.57,2.18"/><path d="M168.4,177.64a1.87,1.87,0,0,1-.77,1.61,3.66,3.66,0,0,1-2.19.57,4.83,4.83,0,0,1-2.33-.47v-1a6.16,6.16,0,0,0,1.16.43,5.06,5.06,0,0,0,1.2.15,2.68,2.68,0,0,0,1.36-.28,1,1,0,0,0,.1-1.61,5.93,5.93,0,0,0-1.48-.74,7.79,7.79,0,0,1-1.49-.68,1.94,1.94,0,0,1-.65-.66,1.64,1.64,0,0,1-.22-.88,1.66,1.66,0,0,1,.75-1.44,3.41,3.41,0,0,1,2-.53,6,6,0,0,1,2.37.49l-.41.92a5.39,5.39,0,0,0-2-.46,2.36,2.36,0,0,0-1.22.25.83.83,0,0,0-.25,1.21,1.48,1.48,0,0,0,.49.4,12.66,12.66,0,0,0,1.31.56,5.1,5.1,0,0,1,1.81,1,1.73,1.73,0,0,1,.46,1.24"/><path d="M176.26,179.68l-.23-1.06H176a3.14,3.14,0,0,1-1.12.95,3.32,3.32,0,0,1-1.39.25,2.53,2.53,0,0,1-1.75-.57,2.12,2.12,0,0,1-.63-1.64q0-2.27,3.63-2.38l1.27,0v-.46a1.9,1.9,0,0,0-.38-1.3,1.56,1.56,0,0,0-1.21-.42,5,5,0,0,0-2.12.57l-.35-.87a5.16,5.16,0,0,1,1.21-.47,5.51,5.51,0,0,1,1.33-.17,2.87,2.87,0,0,1,2,.59,2.51,2.51,0,0,1,.65,1.91v5.11Zm-2.57-.8a2.29,2.29,0,0,0,1.67-.58,2.14,2.14,0,0,0,.6-1.62V176l-1.13.05a4.09,4.09,0,0,0-2,.42,1.26,1.26,0,0,0-.6,1.16,1.14,1.14,0,0,0,.37.93,1.52,1.52,0,0,0,1,.32"/><rect x="180.84" y="169.05" width="1.14" height="10.64"/><path d="M193.23,178.88a3.73,3.73,0,0,0,.59,0l.44-.09v.87a2.06,2.06,0,0,1-.54.14,4,4,0,0,1-.65.06c-1.45,0-2.17-.76-2.17-2.29v-4.46h-1.08v-.54l1.08-.47.48-1.6H192v1.73h2.18v.88H192v4.41a1.54,1.54,0,0,0,.32,1,1.13,1.13,0,0,0,.88.36"/><path d="M202.28,179.68v-4.84a2,2,0,0,0-.41-1.37,1.72,1.72,0,0,0-1.31-.45,2.15,2.15,0,0,0-1.73.64,3.28,3.28,0,0,0-.54,2.11v3.91h-1.13V169.05h1.13v3.22a8.31,8.31,0,0,1,0,1h.06a2.41,2.41,0,0,1,1-.85,3,3,0,0,1,1.41-.31,2.91,2.91,0,0,1,2.06.65,2.76,2.76,0,0,1,.69,2.08v4.88Z"/><path d="M211.76,179.68l-.23-1.06h-.05a3.14,3.14,0,0,1-1.12.95,3.36,3.36,0,0,1-1.39.25,2.53,2.53,0,0,1-1.75-.57,2.12,2.12,0,0,1-.63-1.64q0-2.27,3.63-2.38l1.27,0v-.46a1.9,1.9,0,0,0-.38-1.3,1.56,1.56,0,0,0-1.21-.42,5,5,0,0,0-2.12.57l-.35-.87a5.16,5.16,0,0,1,1.21-.47,5.45,5.45,0,0,1,1.33-.17,2.87,2.87,0,0,1,2,.59,2.51,2.51,0,0,1,.65,1.91v5.11Zm-2.57-.8a2.31,2.31,0,0,0,1.67-.58,2.14,2.14,0,0,0,.6-1.62V176l-1.13.05a4.09,4.09,0,0,0-2,.42,1.26,1.26,0,0,0-.6,1.16,1.14,1.14,0,0,0,.37.93,1.52,1.52,0,0,0,1,.32"/><path d="M218.76,178.88a3.69,3.69,0,0,0,.58,0l.44-.09v.87a2.06,2.06,0,0,1-.54.14,4,4,0,0,1-.65.06c-1.45,0-2.17-.76-2.17-2.29v-4.46h-1.08v-.54l1.08-.47.48-1.6h.65v1.73h2.18v.88h-2.18v4.41a1.54,1.54,0,0,0,.32,1,1.14,1.14,0,0,0,.89.36"/><rect x="227.89" y="169.69" width="1.16" height="9.99"/><path d="M240.47,178.88a3.73,3.73,0,0,0,.59,0l.44-.09v.87a2.06,2.06,0,0,1-.54.14,4,4,0,0,1-.65.06c-1.45,0-2.17-.76-2.17-2.29v-4.46h-1.08v-.54l1.08-.47.48-1.6h.65v1.73h2.18v.88h-2.18v4.41a1.54,1.54,0,0,0,.32,1,1.13,1.13,0,0,0,.88.36"/><path d="M249.52,179.68v-4.84a2,2,0,0,0-.41-1.37,1.72,1.72,0,0,0-1.31-.45,2.11,2.11,0,0,0-1.72.64,3.22,3.22,0,0,0-.55,2.11v3.91H244.4V169.05h1.13v3.22a8.31,8.31,0,0,1-.05,1h.07a2.31,2.31,0,0,1,.95-.85,3,3,0,0,1,1.41-.31,2.91,2.91,0,0,1,2.06.65,2.76,2.76,0,0,1,.69,2.08v4.88Z"/><path d="M260.86,175.93a4.1,4.1,0,0,1-.93,2.86,3.22,3.22,0,0,1-2.55,1,3.4,3.4,0,0,1-1.78-.47,3.1,3.1,0,0,1-1.2-1.35,4.64,4.64,0,0,1-.43-2.07,4.12,4.12,0,0,1,.92-2.85,3.24,3.24,0,0,1,2.54-1,3.16,3.16,0,0,1,2.5,1,4.11,4.11,0,0,1,.93,2.83m-5.71,0a3.58,3.58,0,0,0,.57,2.19,2.28,2.28,0,0,0,3.38,0,3.51,3.51,0,0,0,.58-2.19,3.46,3.46,0,0,0-.58-2.17,2,2,0,0,0-1.7-.74,2,2,0,0,0-1.68.73,3.52,3.52,0,0,0-.57,2.18"/><path d="M265.31,172.19v4.86a2,2,0,0,0,.42,1.37,1.7,1.7,0,0,0,1.31.45,2.11,2.11,0,0,0,1.71-.64,3.2,3.2,0,0,0,.55-2.1v-3.94h1.13v7.49h-.93l-.17-1h-.06a2.24,2.24,0,0,1-1,.85,3.32,3.32,0,0,1-1.41.29,2.85,2.85,0,0,1-2.05-.65,2.77,2.77,0,0,1-.68-2.08v-4.9Z"/><path d="M280.37,172.19v.72l-1.39.16a2.31,2.31,0,0,1,.34.63,2.21,2.21,0,0,1,.16.87,2.24,2.24,0,0,1-.76,1.76,3,3,0,0,1-2.06.65,3.22,3.22,0,0,1-.63,0,1.11,1.11,0,0,0-.72,1,.49.49,0,0,0,.25.46,1.85,1.85,0,0,0,.87.14h1.32a3,3,0,0,1,1.87.52,1.77,1.77,0,0,1,.66,1.49,2.12,2.12,0,0,1-1,1.89,5.31,5.31,0,0,1-2.91.66,4,4,0,0,1-2.27-.55,1.86,1.86,0,0,1-.36-2.73,2.23,2.23,0,0,1,1.23-.67,1.18,1.18,0,0,1-.48-.41,1.05,1.05,0,0,1-.2-.63,1.23,1.23,0,0,1,.22-.72,2.48,2.48,0,0,1,.69-.6,2,2,0,0,1-.94-.81,2.33,2.33,0,0,1-.37-1.31,2.45,2.45,0,0,1,.74-1.9,3,3,0,0,1,2.09-.66,3.85,3.85,0,0,1,1.06.13Zm-6,8.75a1,1,0,0,0,.51.92,2.81,2.81,0,0,0,1.47.32,4,4,0,0,0,2.11-.43,1.3,1.3,0,0,0,.69-1.16.92.92,0,0,0-.37-.84,2.93,2.93,0,0,0-1.42-.24H276a1.79,1.79,0,0,0-1.2.37,1.32,1.32,0,0,0-.43,1.06m.61-6.35a1.51,1.51,0,0,0,.45,1.19,1.74,1.74,0,0,0,1.23.4c1.11,0,1.66-.53,1.66-1.61a1.49,1.49,0,0,0-1.68-1.69,1.7,1.7,0,0,0-1.23.43,1.78,1.78,0,0,0-.43,1.28"/><path d="M288.44,179.68v-4.84a2,2,0,0,0-.42-1.37,1.7,1.7,0,0,0-1.31-.45,2.11,2.11,0,0,0-1.72.64,3.22,3.22,0,0,0-.55,2.11v3.91h-1.13V169.05h1.13v3.22a6.54,6.54,0,0,1-.05,1h.07a2.31,2.31,0,0,1,1-.85,3,3,0,0,1,1.41-.31,2.89,2.89,0,0,1,2.06.65,2.76,2.76,0,0,1,.69,2.08v4.88Z"/><path d="M295.72,178.88a3.6,3.6,0,0,0,.58,0l.45-.09v.87a2.28,2.28,0,0,1-.55.14,3.91,3.91,0,0,1-.64.06c-1.45,0-2.18-.76-2.18-2.29v-4.46h-1.07v-.54l1.07-.47.48-1.6h.66v1.73h2.17v.88h-2.17v4.41a1.54,1.54,0,0,0,.32,1,1.12,1.12,0,0,0,.88.36"/></g></g></svg>