<svg xmlns="http://www.w3.org/2000/svg" viewBox="0 0 129.77 114.18"><defs><style>.cls-1{fill:#fefefe;}.cls-2{fill:#245885;}.cls-3{fill:#f4a109;}.cls-4{fill:#54a8db;}.cls-5{fill:#9fdef6;}.cls-6{fill:#f6f7f8;}</style></defs><title>Asset 15</title><g id="Layer_2" data-name="Layer 2"><g id="Layer_1-2" data-name="Layer 1"><path class="cls-1" d="M88.85,14.48c-7.19-4.41-14.12-8.61-21-12.92C66,.4,64.56-.12,62.44,1.19c-19.63,12.23-39.35,24.34-59,36.52A6.56,6.56,0,0,0,.07,44.47C.45,47.38,2.19,49.73,5,50.08s2.91,1.86,2.91,4q0,26.73,0,53.48c0,2.11.16,4.12-3,3.73-1-.12-2.2,0-2.18,1.37s1.15,1.45,2.18,1.49,2,0,3,0l113,0c1,0,2,0,3,0,1.16,0,2.59,0,2.65-1.54,0-1.28-1.24-1.42-2.24-1.34-2,.17-2.52-.82-2.51-2.66.06-18.49.06-37,.1-55.48,0-1.28-.27-2.58,1.8-2.81,3.62-.41,5.7-2.77,6-6.29s-1.83-5.44-4.59-7.1c-6.42-3.86-12.77-7.82-19.12-11.79-1.09-.69-3-1.16-2.89-2.49.38-5.29-2-10.82,1.45-15.89,2.1-3.06.7-6.2-3-6.51a68.23,68.23,0,0,0-11,0c-3.7.27-5.47,3.56-3.19,6.34,2,2.47,1.62,4.81,1.38,7.94"/><path class="cls-2" d="M88.85,14.48c.24-3.13.64-5.47-1.38-7.94C85.19,3.76,87,.47,90.66.2a68.23,68.23,0,0,1,11,0c3.65.31,5,3.45,3,6.51-3.48,5.07-1.07,10.6-1.45,15.89-.1,1.33,1.8,1.81,2.89,2.49,6.35,4,12.7,7.93,19.12,11.79,2.76,1.66,4.9,3.71,4.59,7.1s-2.39,5.88-6,6.29c-2.07.23-1.8,1.53-1.8,2.81,0,18.5,0,37-.1,55.48,0,1.84.48,2.83,2.51,2.66,1-.08,2.28.06,2.24,1.34-.06,1.53-1.49,1.5-2.65,1.54-1,0-2,0-3,0l-113,0c-1,0-2,0-3,0s-2.16-.22-2.18-1.49S4,111.15,5,111.27c3.13.39,3-1.62,3-3.73q-.06-26.75,0-53.48c0-2.12,0-3.62-2.91-4S.45,47.38.07,44.47a6.56,6.56,0,0,1,3.35-6.76c19.67-12.18,39.39-24.29,59-36.51,2.12-1.32,3.6-.8,5.43.36,6.86,4.31,13.79,8.51,21,12.92M11.07,52.18c-.1,18.8-.16,37.6-.34,56.4,0,2.91,1.71,2.65,3.59,2.65,8.16,0,16.32-.1,24.47,0,2.89,0,4.87-.16,4.39-3.89a3.37,3.37,0,0,1,2.58-3.83c3.16-.47,2.94-2.47,2.93-4.71q0-17.47,0-34.95c0-6.24.54-6.76,6.94-6.78s12.65,0,19,0c5.87,0,6.5.7,6.51,6.73,0,11.65,0,23.31.05,35,0,1.59-1,3.89,1.8,4.43s3.78,2.52,3.69,5.1c-.07,2,.5,3,2.79,3,9-.11,18-.09,27,0,2,0,2.61-.76,2.6-2.65q-.19-28.2-.31-56.4c.72-2.43-.67-3.6-2.54-4.72Q91.93,33.1,67.82,18.57a5,5,0,0,0-5.9,0q-24.08,14.58-48.28,29c-1.83,1.09-3.38,2.2-2.57,4.67M78.39,81.65c0-6-.06-12,0-18,0-2.54-.47-4.05-3.55-4-6.65.18-13.3.15-20,0-2.92-.06-3.7,1.23-3.68,3.9.08,12,.11,23.94,0,35.91,0,3,1.22,3.63,3.88,3.58,6.48-.14,13-.2,19.45,0,3.19.11,4-1.12,3.89-4-.17-5.81,0-11.64,0-17.46M64.79,13.6c.95.53,1.95,1.06,2.93,1.64l23.56,14L120,46.41c2.25,1.35,4.49,1.67,6.13-.8s.06-4.31-1.95-5.79c-.53-.39-1.09-.76-1.66-1.11C104.38,27.54,86.24,16.41,68.2,5.13c-2.48-1.56-4.24-1.5-6.69.06C50,12.49,38.36,19.6,26.75,26.74c-7.08,4.35-14.22,8.61-21.29,13C3.26,41.09,2,43,3.65,45.57c1.44,2.18,3.5,2.31,5.69,1.09.73-.41,1.43-.85,2.14-1.27L62,15.12c.85-.51,1.74-.94,2.82-1.52m-.38,97.61c5.48,0,11,0,16.43,0,1.57,0,3,0,3-2.19,0-2-.6-3.22-2.78-3.21q-16.17.06-32.34.13c-2.11,0-2.88,1-2.84,3.11,0,2.3,1.55,2.15,3.06,2.15,5.15,0,10.29,0,15.43,0m35.53-90c0-3.91,0-7.13,0-10.34s-2.5-2.35-4.29-2.44-3.32-.23-3.77,2.52c-1,6.25,3.63,7.52,8.07,10.26M95.87,5.59C98,4.82,102,6.55,102,4.4c0-3.2-3.92-1.61-6.08-1.66S90,1.4,90,4c0,2.79,3.89.68,5.87,1.58"/><path class="cls-3" d="M78.39,81.65c0,5.82-.12,11.65,0,17.46.09,2.93-.7,4.16-3.89,4-6.48-.22-13-.16-19.45,0-2.66.06-3.91-.57-3.88-3.57.13-12,.1-23.94,0-35.91,0-2.67.76-4,3.68-3.9,6.65.14,13.3.17,20,0,3.08-.09,3.58,1.42,3.55,4-.09,6,0,12,0,18M58.06,79.92a2.46,2.46,0,0,0-2.23-2.41,2.42,2.42,0,0,0-3,2.42A2.31,2.31,0,0,0,55,82.68c1.76.23,2.75-.66,3.05-2.76"/><path class="cls-4" d="M64.79,13.6c-1.08.58-2,1-2.82,1.52L11.48,45.39c-.71.42-1.41.87-2.14,1.27-2.2,1.22-4.25,1.09-5.69-1.09C2,43,3.26,41.09,5.46,39.73c7.07-4.38,14.21-8.64,21.29-13C38.36,19.6,50,12.49,61.51,5.19,64,3.63,65.72,3.58,68.2,5.13c18,11.28,36.18,22.41,54.29,33.58.57.35,1.12.72,1.66,1.11,2,1.48,3.7,3.17,1.95,5.79s-3.88,2.15-6.13.8L91.28,29.28l-23.56-14c-1-.58-2-1.11-2.93-1.64"/><path class="cls-5" d="M118.68,52.2c-16-8.88-32-17.53-47.76-26.76-4.3-2.52-7.41-2.9-11.72-.36C43.75,34.19,28.09,43,12.5,51.84a5.45,5.45,0,0,1-1.43.35c-.81-2.48.74-3.59,2.57-4.68q24.17-14.43,48.28-29a5,5,0,0,1,5.9,0q24.09,14.57,48.32,28.91c1.87,1.12,3.26,2.29,2.54,4.72"/><path class="cls-5" d="M64.41,111.21c-5.14,0-10.28,0-15.43,0-1.51,0-3,.15-3.06-2.16,0-2.08.73-3.09,2.84-3.1q16.17,0,32.34-.13c2.18,0,2.8,1.23,2.78,3.21,0,2.23-1.47,2.19-3,2.19-5.47,0-11,0-16.43,0"/><path class="cls-4" d="M99.94,21.2c-4.44-2.74-9.09-4-8.07-10.26.45-2.75,2-2.61,3.77-2.52s4.27-.83,4.29,2.44,0,6.43,0,10.34"/><path class="cls-4" d="M95.87,5.59C93.89,4.69,90,6.8,90,4c0-2.61,3.87-1.32,5.94-1.27S102,1.2,102,4.4c0,2.15-4,.42-6.15,1.19"/><path class="cls-2" d="M89.09,70.57c0-4.41,0-7.57,0-10.74,0-3.64,1.52-5.63,5.38-5.54,3.66.09,7.33.13,11,0,4.15-.15,5.68,1.92,5.59,5.81q-.15,7,0,14c.06,3.37-.58,6.7,2.09,9.83,2,2.35-.12,5.74-3.57,5.87-6.32.25-12.66.2-19,0-3.52-.12-5.19-3.25-3.48-5.54,3.59-4.84,1.07-10,2-13.64m11.23,10.8c2-.79,6,1.6,7.13-1.12,1.25-3.15,1-7.35.11-10.76-.67-2.57-4.1-1.17-6.25-1.2-10.12-.14-10-.07-9.41,9.93.15,2.35.88,3.33,3.23,3.17,1.49-.1,3,0,5.19,0M100,65.22c.82,0,1.65,0,2.47,0,2.78-.09,5.86,1.05,5.79-4s-3.21-3.85-5.94-3.95c-2.15-.07-4.32.18-6.44-.05-3.6-.4-3.86,1.58-4,4.45C91.69,65,93.3,65.5,96,65.24c1.3-.12,2.63,0,4,0m.26,19H91.78c-1,0-2.22,0-2.17,1.34,0,.86,1,1.27,1.89,1.27,5.8,0,11.61,0,17.42-.08.83,0,1.72-.37,1.67-1.4s-1.09-1.1-1.88-1.11c-2.82-.05-5.64,0-8.46,0"/><path class="cls-2" d="M16.55,87.89c-.15-1-.78-2.29-.37-2.88,5-7.11,2.05-15.1,2.51-22.65.47-7.8.33-8,8.34-8,14.64,0,13.59-1.5,13.71,13.75,0,5.63-1.66,11.58,2.25,16.81.49.67-.21,2.23-.35,3.37-7.56,2.81-15.38.79-23.07,1.17-1,0-2-1-3-1.52m12.84-17.4a24.77,24.77,0,0,1,3.38,0c4.23.7,5.25-1.16,5.09-5.19-.4-9.34,1.25-8-8.24-8.11-1.82,0-3.64,0-5.46,0-1.27,0-2.42.24-2.4,1.79,0,3.61-.68,7.58.6,10.7.86,2.09,4.88.35,7,.78m.3,10.89c.82,0,1.65,0,2.47,0,2.83-.05,5.84.9,5.82-4.1,0-5.23-3.34-3.72-6-3.86-2.3-.12-4.62.11-6.91,0-3.25-.23-3.24,1.79-3.29,4.11-.05,2.5.37,4.24,3.46,3.93a41.27,41.27,0,0,1,4.45,0m-.58,5.48c3,0,6,0,9,0,.88,0,1.8-.28,1.91-1.22s-.8-1.32-1.67-1.32q-8.75,0-17.5,0c-.85,0-1.81.25-1.67,1.32s1.08,1.19,1.94,1.2c2.66,0,5.33,0,8,0"/><path class="cls-5" d="M16.55,87.89c1,.53,2,1.56,3,1.52,7.69-.38,15.51,1.64,23.07-1.17.56,2.69-1.19,3.83-3.27,3.89-6.42.17-12.86.22-19.27-.1-1.92-.09-4.43-1-3.55-4.14"/><path class="cls-2" d="M58.06,79.92c-.3,2.1-1.29,3-3.05,2.76a2.31,2.31,0,0,1-2.15-2.75,2.42,2.42,0,0,1,3-2.42,2.46,2.46,0,0,1,2.23,2.41"/><path class="cls-4" d="M100.32,81.37c-2.2,0-3.7-.08-5.19,0-2.35.16-3.08-.82-3.23-3.17-.63-10-.71-10.07,9.41-9.93,2.15,0,5.58-1.37,6.25,1.2.9,3.41,1.14,7.61-.11,10.76-1.09,2.72-5.18.33-7.13,1.12"/><path class="cls-3" d="M100,65.22c-1.33,0-2.66-.1-4,0-2.73.26-4.34-.25-4.17-3.63.15-2.87.41-4.85,4-4.45,2.12.23,4.29,0,6.44.05,2.73.1,5.88-1.17,5.94,3.95s-3,4-5.79,4c-.82,0-1.65,0-2.47,0"/><path class="cls-6" d="M100.25,84.27c2.82,0,5.64,0,8.46,0,.79,0,1.81,0,1.88,1.11s-.84,1.39-1.67,1.4c-5.81.06-11.62.07-17.42.08-.9,0-1.86-.41-1.89-1.27,0-1.35,1.17-1.33,2.17-1.34h8.47"/><path class="cls-3" d="M29.39,70.49c-2.16-.43-6.17,1.31-7-.78-1.29-3.12-.56-7.09-.6-10.7,0-1.55,1.13-1.8,2.4-1.79,1.82,0,3.64,0,5.46,0,9.49.13,7.84-1.23,8.23,8.11.17,4-.85,5.89-5.08,5.19a24.77,24.77,0,0,0-3.38,0"/><path class="cls-4" d="M29.69,81.37a44,44,0,0,0-4.45,0c-3.09.31-3.51-1.43-3.46-3.93,0-2.32,0-4.34,3.29-4.11,2.29.16,4.61-.07,6.91,0,2.66.14,6-1.37,6,3.86,0,5-3,4-5.82,4.1-.82,0-1.65,0-2.47,0"/><path class="cls-5" d="M87.55,87.89c1,.53,2,1.56,3,1.52,7.69-.38,15.51,1.64,23.07-1.17.56,2.69-1.19,3.83-3.27,3.89-6.42.17-12.86.22-19.27-.1-1.92-.09-4.43-1-3.55-4.14"/></g></g></svg>