<svg xmlns="http://www.w3.org/2000/svg" viewBox="0 0 747 114"><defs><style>.cls-1{font-size:14px;fill:#fff;font-family:mplus-1c-regular, "M+ 1c";letter-spacing:0.5em;}.cls-2{font-size:67.67px;font-family:HelveticaNeue-CondensedBlack, Helvetica Neue;font-weight:800;letter-spacing:0.05em;}.cls-2,.cls-3{fill:#f4a109;}</style></defs><g id="Layer_2" data-name="Layer 2"><g id="svg"><rect width="747" height="114" rx="14.13"/><text class="cls-1" transform="translate(195 28.98)">お電話によるお問い合わせはお気軽に</text><text class="cls-2" transform="translate(195.76 91.08)">0120-915-001</text><path class="cls-3" d="M108.93,43v6.94a39.9,39.9,0,0,1,14.59,2.73c.81.32,1.58.66,2.34,1a36.54,36.54,0,0,1,5.52-2.12,40.9,40.9,0,0,1,11.47-1.63,40,40,0,0,1,14.66,2.73q1.2.48,2.34,1a36.13,36.13,0,0,1,5.52-2.12,40.79,40.79,0,0,1,11.41-1.63V43Z"/><path class="cls-3" d="M151.41,69.32A8.37,8.37,0,0,0,152.85,74a8.47,8.47,0,0,0,3.71,3.06,8.49,8.49,0,0,0,8-.77,8.43,8.43,0,0,0,3.72-7,7.13,7.13,0,0,0-.54-2.65,11.77,11.77,0,0,0-1.68-2.86,21.32,21.32,0,0,0-6.21-5.18,23,23,0,0,0-5.11,3.9,12.72,12.72,0,0,0-2.9,4.45A7,7,0,0,0,151.41,69.32Z"/><path class="cls-3" d="M168.1,59.5a17,17,0,0,1,3.88,6,11.52,11.52,0,0,1,.67,3.8,12.81,12.81,0,1,1-25.61,0,12.1,12.1,0,0,1,1.47-5.61,18.78,18.78,0,0,1,3.87-5,27.51,27.51,0,0,1,2.77-2.27c-.67-.24-1.36-.47-2.06-.68a36.29,36.29,0,0,0-10.24-1.46,35.87,35.87,0,0,0-12.3,2.14,25.53,25.53,0,0,1,3.56,3,16.9,16.9,0,0,1,3.88,6,11.28,11.28,0,0,1,.68,3.8,12.81,12.81,0,1,1-25.62,0,12.1,12.1,0,0,1,1.47-5.61,19,19,0,0,1,3.87-5,27.51,27.51,0,0,1,2.77-2.27c-.67-.24-1.36-.47-2.06-.68a36.57,36.57,0,0,0-10.17-1.46V87.52h67.85V54.31a36,36,0,0,0-12.24,2.14A25.53,25.53,0,0,1,168.1,59.5Z"/><path class="cls-3" d="M117.42,69.32a8.44,8.44,0,0,0,5.16,7.77,8.28,8.28,0,0,0,3.28.66,8.37,8.37,0,0,0,4.71-1.43,8.55,8.55,0,0,0,3.06-3.72,8.32,8.32,0,0,0,.66-3.28,7.13,7.13,0,0,0-.54-2.65,11.77,11.77,0,0,0-1.68-2.86,21.19,21.19,0,0,0-6.21-5.18,22.73,22.73,0,0,0-5.1,3.9A12.61,12.61,0,0,0,117.85,67,7,7,0,0,0,117.42,69.32Z"/></g></g></svg>