<svg xmlns="http://www.w3.org/2000/svg" viewBox="0 0 433.52 75.82"><defs><style>.cls-1{fill:#fbce2f;}.cls-2{fill:#fff;}</style></defs><title>Asset 6</title><g id="Layer_2" data-name="Layer 2"><g id="Layer_1-2" data-name="Layer 1"><rect width="387.31" height="34.57"/><rect y="41.25" width="433.52" height="34.57"/><path class="cls-1" d="M26.64,8.9l-8.07,14a3,3,0,0,0,2.6,4.51H37.32a3,3,0,0,0,2.6-4.51l-8.07-14a3,3,0,0,0-5.21,0"/><path d="M30.41,23a1.17,1.17,0,1,1-1.16-1.18A1.17,1.17,0,0,1,30.41,23m-.54-3c0,.39-.17.7-.6.7s-.59-.23-.63-.69l-.4-3.86V13.29a.87.87,0,0,1,1-.95c.71,0,1,.35,1,.95v2.94Z"/><path class="cls-2" d="M62,12.88c-.15.31-.31.88-.46,1.32,2.88.86,4.68,3,4.68,5.71,0,3.38-2.16,6.48-7.8,7.37l-1.27-2c4.42-.48,6.72-2.74,6.72-5.5a3.9,3.9,0,0,0-3-3.72,19.24,19.24,0,0,1-5.14,7.49c.17.64.36,1.27.56,1.85l-2.19.64a11.19,11.19,0,0,1-.33-1.15,8.43,8.43,0,0,1-3.87,1.15,2.87,2.87,0,0,1-3-3.21c0-3.05,2.62-6.24,5.91-7.76,0-1.1.14-2.2.23-3.24H51.91c-1.12,0-3-.09-4-.16l-.07-2.21A37.66,37.66,0,0,0,52,9.78h1.3l.17-1.61c0-.41.07-.91,0-1.25L56,7a10.93,10.93,0,0,0-.28,1.13c-.1.46-.2,1-.29,1.59a44.63,44.63,0,0,0,8.21-1l0,2.21a77.88,77.88,0,0,1-8.5.86c-.07.82-.14,1.68-.21,2.57a15.1,15.1,0,0,1,3.79-.53c.24,0,.46,0,.67,0a9.46,9.46,0,0,0,.27-1.53Zm-8.74,9.81a30,30,0,0,1-.53-5.35c-2.08,1.3-3.57,3.41-3.57,5.06,0,.89.38,1.32,1.22,1.32a5.71,5.71,0,0,0,2.88-1M54.87,17a25.49,25.49,0,0,0,.35,4.15,15.67,15.67,0,0,0,3.56-5.35h-.15a12.16,12.16,0,0,0-3.76.62Z"/><path class="cls-2" d="M84.53,11.84a32.91,32.91,0,0,1-4.23.84,41.48,41.48,0,0,1-5.16,10.11l-2.3-1.18a34.49,34.49,0,0,0,5-8.66c-.58,0-1.13.05-1.71.05-.91,0-1.89,0-2.85-.1l-.17-2.21c.94.1,2.06.14,3,.14.8,0,1.61,0,2.45-.09a19.16,19.16,0,0,0,.7-4L81.87,7c-.2.81-.51,2.13-.87,3.48a25.74,25.74,0,0,0,3.46-.82Zm2.93,2.48c-.07,1,0,1.82,0,2.78,0,.77.1,2.14.17,3.48a15.63,15.63,0,0,1,4.92,3l-1.27,2A19.38,19.38,0,0,0,87.7,23v.65c0,2-1.23,3.65-4.35,3.65-2.76,0-5-1.18-5-3.65,0-2.23,2-3.82,5-3.82a10.76,10.76,0,0,1,2,.17c-.09-1.87-.21-4.1-.26-5.66ZM85.39,22a8,8,0,0,0-2.18-.28c-1.58,0-2.62.69-2.62,1.65s.82,1.71,2.45,1.71a2.07,2.07,0,0,0,2.38-2.24c0-.23,0-.5,0-.84m6.51-6.81a31.12,31.12,0,0,0-5.55-3.32l1.2-1.84a38.45,38.45,0,0,1,5.69,3.19Z"/><path class="cls-2" d="M111.72,12.11a48.14,48.14,0,0,1-4.78.79c-.21,1-.48,2.09-.74,3.1a71.49,71.49,0,0,1-3.74,10.94l-2.64-.89a51.73,51.73,0,0,0,4-10.65c.21-.72.41-1.52.57-2.28-.67,0-1.29,0-1.89,0-1.11,0-2,0-2.83-.09l0-2.36a21.09,21.09,0,0,0,2.9.2c.75,0,1.54,0,2.38-.1.12-.7.24-1.32.29-1.75a11.72,11.72,0,0,0,.07-2.16l2.9.21c-.17.6-.36,1.56-.45,2l-.29,1.4a39.29,39.29,0,0,0,4.27-.82ZM111,20.2a8.48,8.48,0,0,0-.34,2.06c0,1.08.58,2,3.6,2a26.39,26.39,0,0,0,4.75-.48l-.07,2.42a31.49,31.49,0,0,1-4.7.34c-3.87,0-5.86-1.27-5.86-3.62a15.86,15.86,0,0,1,.36-3ZM110,14.34a42.79,42.79,0,0,1,4.44-.24,38.06,38.06,0,0,1,4.15.22l-.07,2.28a32.88,32.88,0,0,0-4-.29,38.63,38.63,0,0,0-4.49.24Z"/><path class="cls-2" d="M135.1,24.59a12.58,12.58,0,0,0,2.11-.34c3-.69,5.76-2.9,5.76-6.74a6.29,6.29,0,0,0-5.71-6.63,55.08,55.08,0,0,1-1.42,6.68c-1.44,4.84-3.41,7.56-5.78,7.56s-4.52-2.67-4.52-6.63c0-5.28,4.68-9.86,10.64-9.86,5.71,0,9.33,4,9.33,9s-3.19,8.43-9,9.24Zm-1.68-7.54a32.86,32.86,0,0,0,1.29-6.12,8,8,0,0,0-6.77,7.35c0,2.73,1.23,4,2.19,4s2.18-1.54,3.29-5.21"/><path class="cls-2" d="M151.15,25.57A16.76,16.76,0,0,0,153.72,20l2,.74a20.88,20.88,0,0,1-2.57,6Zm19.18-7.65H153.48V7h16.85Zm-14.74-6.41h5.26V8.92h-5.26Zm0,4.46h5.26V13.33h-5.26Zm9.12,9.48c1.11,0,1.28-.38,1.42-2.93a6.83,6.83,0,0,0,2,.85c-.29,3.31-1,4.1-3.29,4.1h-4.46c-2.81,0-3.53-.63-3.53-2.81V20.29h2.26v4.37c0,.67.23.79,1.48.79ZM164,22.93a21.46,21.46,0,0,0-4.82-3.45l1.46-1.4a22.1,22.1,0,0,1,5,3.32Zm4.13-14H163v2.59h5.11Zm0,4.41H163V16h5.11Zm1.49,6.41a22.58,22.58,0,0,1,3.26,5.83l-2.16.92a22.49,22.49,0,0,0-3.09-5.91Z"/><path class="cls-2" d="M182.5,15.59c1.65-.53,5.61-1.92,8.45-1.92,3.55,0,6,2.11,6,5.52,0,4.46-4.13,7-11,7.49l-1-2.33c5.25-.17,9.55-1.61,9.55-5.21,0-1.9-1.49-3.26-3.75-3.26-2.88,0-7.87,2.06-9.6,2.78l-1-2.47a24,24,0,0,0,2.36-.6"/><path class="cls-2" d="M207,9.76c1.75-.15,6-.56,10.35-.94,2.54-.19,4.92-.34,6.55-.38v2.4a20.76,20.76,0,0,0-4.61.36A7.82,7.82,0,0,0,214,18.32c0,4.32,4,5.76,8,5.93l-.86,2.57c-4.66-.24-9.56-2.74-9.56-8a9.44,9.44,0,0,1,4-7.71c-2.09.24-7.92.82-10.56,1.37l-.27-2.61c.94,0,1.75-.08,2.21-.12"/><path class="cls-2" d="M234.77,11.75a50.58,50.58,0,0,0,.17,5.35c.36,3.74,1.32,6.24,2.9,6.24,1.2,0,2.23-2.59,2.76-4.78l1.92,2.24c-1.51,4.08-3,5.49-4.73,5.49-2.4,0-4.61-2.3-5.25-8.57a63.19,63.19,0,0,1-.27-6.36,11.46,11.46,0,0,0-.17-2.23l2.91,0a19.36,19.36,0,0,0-.24,2.57m16.66,9.89-2.48,1c-.38-4.08-1.75-9.2-4.15-12l2.38-.79c2.18,2.76,3.93,8,4.25,11.86"/><path class="cls-2" d="M273.82,9.49c-.48.31-1,.67-1.47,1-1.22.86-4.1,3.38-5.78,4.77a8.9,8.9,0,0,1,2.81-.41c4,0,6.93,2.45,6.93,5.76,0,3.82-3,6.53-8.37,6.53-3.29,0-5.5-1.49-5.5-3.62a3.68,3.68,0,0,1,3.94-3.39,4.76,4.76,0,0,1,5,4.18,3.88,3.88,0,0,0,2.5-3.72c0-2.23-2.26-3.82-5.16-3.82-3.8,0-6,1.78-8.86,4.76l-1.75-1.78c1.84-1.51,4.82-4,6.21-5.16s4.06-3.38,5.26-4.42c-1.25.05-5.31.22-6.55.29-.6.05-1.23.1-1.76.17l-.07-2.47a17.62,17.62,0,0,0,1.9.12c1.25,0,6.62-.15,7.92-.27a7.41,7.41,0,0,0,1.51-.24Zm-4.63,15.39C269,23.12,268,22,266.38,22c-1,0-1.71.58-1.71,1.32,0,1,1.23,1.68,2.84,1.68a12.81,12.81,0,0,0,1.68-.09"/><path class="cls-2" d="M293.14,21.16c-3.27,1.48-6.8,3-9.46,4.13L282.86,23c.92-.34,2-.77,3.27-1.25l-.46-14.43L288,7.19l.41,13.58c1.39-.57,2.81-1.17,4.2-1.77Zm10.25,6.74a54.09,54.09,0,0,0-5-6.07,17.16,17.16,0,0,1-7.8,6.17,11.21,11.21,0,0,0-1.8-2c8-3,10.46-8.74,11.45-18.84l2.44.24c-.55,5-1.44,9.07-3,12.29a59.78,59.78,0,0,1,5.59,6.38Zm-9.1-12.22a23.84,23.84,0,0,0-3.65-5.88l2-1a23.21,23.21,0,0,1,3.77,5.71Z"/><polygon class="cls-2" points="331.15 24.54 331.15 26.8 309.67 26.8 309.67 24.54 318.43 24.54 318.43 6.25 320.83 6.25 320.83 13.38 329.5 13.38 329.5 15.61 320.83 15.61 320.83 24.54 331.15 24.54"/><path class="cls-2" d="M341.54,7.91c-.16.45-.4,1.39-.5,1.82a56.15,56.15,0,0,0-1.18,9,17.7,17.7,0,0,0,.17,2.5c.36-1,.84-2.11,1.2-3l1.25,1a45.51,45.51,0,0,0-1.7,5.55,3.8,3.8,0,0,0-.12,1.08c0,.24,0,.6,0,.89l-2.16.14a30.14,30.14,0,0,1-.91-7.68,68.38,68.38,0,0,1,1-9.48,15.83,15.83,0,0,0,.22-2ZM347,19.52a9.23,9.23,0,0,0-.29,2.12c0,1.08.79,1.92,3.67,1.92a26.81,26.81,0,0,0,5.93-.63l.05,2.55a32.93,32.93,0,0,1-6,.48c-4,0-5.9-1.4-5.9-3.7a14.23,14.23,0,0,1,.41-2.93Zm8.61-9.91v2.45a60.22,60.22,0,0,1-10,0V9.64a44.76,44.76,0,0,0,10,0"/><path class="cls-2" d="M367.56,27.52a43.85,43.85,0,0,0-5.23-5.31l2-1.73a45,45,0,0,1,5.3,5.31Z"/><path class="cls-1" d="M22.68,67v1.85H20.76V60.76a14.32,14.32,0,0,1-1.15,1.63,13.83,13.83,0,0,0-.89-2.52,21.77,21.77,0,0,0,3.34-8.74H19.27v-2h8.14v2H24.22a41.74,41.74,0,0,1-1.44,5.31h4.1V67Zm2.26-8.6H22.68V65h2.26Zm15-.81a18.54,18.54,0,0,1-3.67,7.77A13.88,13.88,0,0,0,41,68.1a8.82,8.82,0,0,0-1.41,1.83,16,16,0,0,1-4.71-3.05,16.23,16.23,0,0,1-4.53,3,6.82,6.82,0,0,0-1.2-1.7,13.56,13.56,0,0,0,4.39-2.79,18.77,18.77,0,0,1-3.14-5.35c-.17,3.26-.73,7.13-2.52,9.87a7.19,7.19,0,0,0-1.66-1.11c2.09-3.22,2.3-7.78,2.3-11.09V51.49h4.78V47.94h2v3.55h3.6l.34-.07,1.39.34a36.25,36.25,0,0,1-1.32,4.87l-1.75-.41c.24-.72.5-1.75.72-2.76h-3v3.72h3l.39-.07Zm-9.53-.41h2.86V53.46H30.43ZM32,59.1A16.62,16.62,0,0,0,34.87,64a15.63,15.63,0,0,0,2.62-4.85Z"/><path class="cls-1" d="M50.93,61v6.46c0,1.15-.24,1.75-1,2.11a8.56,8.56,0,0,1-3.36.36,7.58,7.58,0,0,0-.63-2,22.83,22.83,0,0,0,2.31,0c.31,0,.45-.09.45-.45V61.6l-3,.86-.55-2.18c1-.22,2.25-.53,3.59-.89V54.64H45.5V52.57h3.24V47.91h2.19v4.66H53.5v2.07H50.93v4.15c.86-.24,1.75-.48,2.61-.75l.29,2.09Zm12.38,4.85a29.54,29.54,0,0,1,4.28,3L65.38,70a22.56,22.56,0,0,0-4-3.12l1.42-1H57.53l1.61,1A19.88,19.88,0,0,1,53.57,70a12.77,12.77,0,0,0-1.51-1.53,17.64,17.64,0,0,0,4.82-2.62h-2.3V55.09H66.39V65.82ZM65.83,54H55.18V48.73H65.83Zm-9.14,4.17h7.46V56.7H56.69Zm0,3h7.46V59.68H56.69Zm0,3h7.46V62.7H56.69Zm7-13.9H57.22v2.07h6.43Z"/><path class="cls-1" d="M81.34,49.43c-.12.5-.27,1.1-.36,1.63-.12.72-.34,1.87-.56,2.95,1-.07,1.83-.12,2.38-.12,2.28,0,4,1,4,4.27,0,2.81-.36,6.58-1.34,8.62a3.59,3.59,0,0,1-3.67,2.07A13.45,13.45,0,0,1,79,68.49l-.4-2.5a12.71,12.71,0,0,0,2.93.5,1.88,1.88,0,0,0,1.94-1.12,19.11,19.11,0,0,0,1.06-6.94c0-2-.92-2.38-2.43-2.38-.48,0-1.27.05-2.16.12-.86,3.51-2.54,9-4.9,12.75l-2.47-1c2.38-3.17,4.08-8.28,4.92-11.49-1.08.12-2,.21-2.59.28s-1.68.22-2.35.34l-.24-2.59c.81.05,1.49,0,2.3,0s2-.12,3.36-.24a27.88,27.88,0,0,0,.58-5.09Zm8.54,3.09a44.83,44.83,0,0,1,3.91,8l-2.37,1.13A27.76,27.76,0,0,0,87.27,53l2.23-1,.38.53A25.8,25.8,0,0,0,88,49.19l1.56-.65a37.78,37.78,0,0,1,2,3.31Zm2.79-1a22.93,22.93,0,0,0-2-3.31l1.56-.65a36,36,0,0,1,2,3.29Z"/><path class="cls-1" d="M103.37,64.91c1,1.65,2.93,2.4,5.59,2.52s8.28,0,11.33-.17a10,10,0,0,0-.72,2.18c-2.76.12-7.85.17-10.63.08-3-.12-5-.92-6.51-2.76-1,1-2.06,1.94-3.24,3l-1.1-2.21a33.18,33.18,0,0,0,3.14-2.44V59.29H98.35V57.23h5Zm-1.15-11.14a17,17,0,0,0-3.7-4l1.7-1.25a17.84,17.84,0,0,1,3.8,3.84Zm4,1.71a20.16,20.16,0,0,1-1.75,1.72,11.82,11.82,0,0,0-1.68-1.72A18.57,18.57,0,0,0,108.27,48l2.23.62a27.45,27.45,0,0,1-1.42,2.88h3.31a21.32,21.32,0,0,0,1.18-3.34l2.42.48c-.43,1-.91,2-1.36,2.86h4.68v1.9h-5v2.09h4.44v1.84h-4.44v2.09h4.37v1.85h-4.37v2.16h5.44v1.9H106.25Zm5.88-2.09h-3.7v2.09h3.7Zm0,3.93h-3.7v2.09h3.7Zm0,3.94h-3.7v2.16h3.7Z"/><path class="cls-1" d="M136.44,51.13c-1.1,1.68-3.21,5.47-4.41,7.68a5.11,5.11,0,0,1,3.14-1.1c1.68,0,2.78,1.08,2.88,3,0,1.25,0,3.09.1,4.2a1.54,1.54,0,0,0,1.72,1.49c2.4,0,3.84-3,4.49-5.72l2,1.64c-1.25,4-3.34,6.62-6.89,6.62-2.57,0-3.58-1.58-3.67-3.12-.07-1.34,0-3.24-.12-4.39a1.46,1.46,0,0,0-1.59-1.51c-1.77,0-3.36,1.82-4.24,3.72a40.84,40.84,0,0,0-2,5.35l-2.64-.89c1.75-4.8,7-14.81,8.23-17.09.29-.6.68-1.25,1-2.09L137.19,50c-.22.29-.48.72-.75,1.13"/><path class="cls-1" d="M154.1,51.88c1.73-.17,6-.58,10.35-.94,2.52-.22,4.92-.36,6.53-.41L171,53a22.92,22.92,0,0,0-4.63.33,7.86,7.86,0,0,0-5.23,7.13c0,4.34,4,5.76,7.94,6l-.86,2.55c-4.66-.24-9.53-2.74-9.53-8a9.44,9.44,0,0,1,4-7.71c-2.07.22-7.9.8-10.56,1.37L151.9,52c.91,0,1.72-.07,2.2-.11m15.51,7-1.49.68a21.79,21.79,0,0,0-1.92-3.36l1.44-.63a32.86,32.86,0,0,1,2,3.31m2.74-1.1-1.47.72a22.93,22.93,0,0,0-2-3.31l1.44-.65c.57.82,1.51,2.26,2,3.24"/><path class="cls-1" d="M182,53.75a50.58,50.58,0,0,0,.17,5.35c.36,3.74,1.32,6.24,2.9,6.24,1.2,0,2.23-2.59,2.76-4.78l1.92,2.24c-1.51,4.08-3,5.49-4.73,5.49-2.4,0-4.61-2.3-5.25-8.57a63.19,63.19,0,0,1-.27-6.36,11.46,11.46,0,0,0-.17-2.23l2.91,0a19.36,19.36,0,0,0-.24,2.57m16.66,9.89-2.48,1c-.38-4.08-1.75-9.2-4.15-12l2.38-.79c2.18,2.76,3.93,8,4.25,11.86"/><path class="cls-1" d="M221,51.49c-.48.31-1,.67-1.47,1-1.22.86-4.1,3.38-5.78,4.77a8.9,8.9,0,0,1,2.81-.41c4,0,6.93,2.45,6.93,5.76,0,3.82-3,6.53-8.37,6.53-3.29,0-5.5-1.49-5.5-3.62a3.68,3.68,0,0,1,3.94-3.39,4.76,4.76,0,0,1,5,4.18,3.88,3.88,0,0,0,2.5-3.72c0-2.23-2.26-3.82-5.16-3.82-3.8,0-6,1.78-8.86,4.76l-1.75-1.78c1.84-1.51,4.82-4,6.21-5.16s4.06-3.38,5.26-4.42c-1.25.05-5.31.22-6.55.29-.6,0-1.23.1-1.76.17l-.07-2.47a17.62,17.62,0,0,0,1.9.12c1.25,0,6.62-.15,7.92-.27a7.41,7.41,0,0,0,1.51-.24Zm-4.64,15.39c-.19-1.76-1.22-2.91-2.8-2.91-1,0-1.71.58-1.71,1.32,0,1,1.23,1.68,2.83,1.68a12.72,12.72,0,0,0,1.68-.09"/><path class="cls-2" d="M237.89,62.32c-2.4,1.22-5,2.52-7,3.48L230,63.56c.86-.33,1.94-.79,3.12-1.29V55.12H230.5V53h2.64V48.15h2.06V53h2.43v2.12H235.2v6.24c.72-.34,1.47-.68,2.21-1Zm4.66-2.84a11.58,11.58,0,0,1-.89,1.44h10s0,.56-.05.84c-.38,4.8-.74,6.68-1.39,7.4a2.1,2.1,0,0,1-1.44.67,18.28,18.28,0,0,1-2.4,0,4.46,4.46,0,0,0-.5-1.8,15.34,15.34,0,0,0,1.87.1c.36,0,.55,0,.74-.27.36-.4.67-1.77,1-5.16H248a16.56,16.56,0,0,1-4.82,7.3,7.11,7.11,0,0,0-1.61-1.25,13.93,13.93,0,0,0,4.56-6h-1.9A18.38,18.38,0,0,1,238.56,69a6.08,6.08,0,0,0-1.49-1.35,15.36,15.36,0,0,0,5.19-4.92h-2a16,16,0,0,1-3,2.57,11.91,11.91,0,0,0-1.51-1.39,12.78,12.78,0,0,0,4.53-4.42h-3.07V57.59h15v1.89Zm8-3H239.47V48.56h11.09Zm-2.06-6.26h-7v1.56h7Zm0,3.07h-7v1.59h7Z"/><path class="cls-2" d="M268.56,48A26.64,26.64,0,0,0,279,56.34a9.8,9.8,0,0,0-1.46,2,31.72,31.72,0,0,1-3.89-2.42v1.7h-12V56a32.71,32.71,0,0,1-3.87,2.45,8.68,8.68,0,0,0-1.36-1.78A26.6,26.6,0,0,0,266.28,48Zm-8.28,12.36h14.79V70h-2.28V69H262.46V70h-2.18Zm12.91-4.7a27.7,27.7,0,0,1-5.66-5.47,25.66,25.66,0,0,1-5.4,5.47ZM262.46,67h10.33v-4.7H262.46Z"/><path class="cls-2" d="M292.54,49.43c-.12.5-.27,1.1-.36,1.63-.12.72-.34,1.87-.55,2.95,1-.07,1.82-.12,2.37-.12,2.28,0,4,1,4,4.27,0,2.81-.36,6.58-1.34,8.62A3.59,3.59,0,0,1,293,68.85a13.53,13.53,0,0,1-2.84-.36l-.4-2.5a12.71,12.71,0,0,0,2.93.5,1.87,1.87,0,0,0,1.94-1.12,19.11,19.11,0,0,0,1.06-6.94c0-2-.92-2.38-2.43-2.38-.48,0-1.27.05-2.16.12-.86,3.51-2.54,9-4.9,12.75l-2.47-1c2.38-3.17,4.08-8.28,4.92-11.49-1.08.12-2,.21-2.59.28s-1.68.22-2.35.34l-.24-2.59c.81.05,1.49,0,2.3,0s2-.12,3.36-.24a27.88,27.88,0,0,0,.58-5.09Zm8.54,3.09a44.83,44.83,0,0,1,3.91,8l-2.37,1.13A27.54,27.54,0,0,0,298.47,53l2.23-1,.38.53a25.8,25.8,0,0,0-1.92-3.31l1.56-.65a35.44,35.44,0,0,1,1.95,3.31Zm2.79-1a22.93,22.93,0,0,0-2-3.31l1.56-.65a36,36,0,0,1,2,3.29Z"/><path class="cls-2" d="M326,54.88c-.15.31-.31.88-.46,1.32,2.88.86,4.68,3,4.68,5.71,0,3.38-2.16,6.48-7.8,7.37l-1.27-2c4.42-.48,6.72-2.74,6.72-5.5a3.9,3.9,0,0,0-3-3.72,19.24,19.24,0,0,1-5.14,7.49c.17.64.36,1.27.56,1.85l-2.19.64a11.19,11.19,0,0,1-.33-1.15,8.43,8.43,0,0,1-3.87,1.15,2.87,2.87,0,0,1-3-3.21c0-3.05,2.62-6.24,5.91-7.76,0-1.1.14-2.2.24-3.24h-1.16c-1.12,0-3-.09-4-.16l-.07-2.21a37.66,37.66,0,0,0,4.13.31h1.29l.17-1.61c0-.41.07-.91.05-1.25L320,49a10.93,10.93,0,0,0-.28,1.13c-.1.46-.2,1-.29,1.59a44.63,44.63,0,0,0,8.21-1l0,2.21a77.88,77.88,0,0,1-8.5.86c-.07.82-.14,1.68-.21,2.57a15.1,15.1,0,0,1,3.79-.53c.24,0,.46,0,.67,0a9.46,9.46,0,0,0,.27-1.53Zm-8.74,9.81a30,30,0,0,1-.53-5.35c-2.08,1.3-3.57,3.41-3.57,5.06,0,.89.38,1.32,1.22,1.32a5.71,5.71,0,0,0,2.88-1M318.87,59a24.39,24.39,0,0,0,.36,4.15,15.8,15.8,0,0,0,3.55-5.35h-.15a12.16,12.16,0,0,0-3.76.62Z"/><path class="cls-2" d="M343.2,49a41.14,41.14,0,0,0-1,5.88c1-2.18,3.34-4.73,6.19-4.73,3.24,0,5.64,3.2,5.64,8.31,0,6.62-4.15,9.67-10.2,10.78l-1.44-2.16c5.21-.82,9.1-2.74,9.1-8.62,0-3.7-1.23-6.12-3.51-6.12-2.88,0-5.52,4.27-5.71,7.39a11.26,11.26,0,0,0,.07,2.74l-2.32.17a28.61,28.61,0,0,1-.29-3.84,62.47,62.47,0,0,1,.72-7.66c.09-.79.17-1.61.19-2.23Z"/><path class="cls-2" d="M380.64,67.93a17.68,17.68,0,0,0-5.3-3.45c0,.48,0,.88,0,1.22,0,1.8-1.29,3.46-4.39,3.46-3.6,0-5.54-1.32-5.54-3.72s2.13-3.84,5.68-3.84c.6,0,1.18,0,1.76.09-.05-.89-.08-1.85-.1-2.71h-1.3c-1.51,0-4.2-.12-5.85-.31l0-2.26a40.43,40.43,0,0,0,5.86.46h1.22v-3h-1.17a48.13,48.13,0,0,1-5.4-.36V51.32a35.26,35.26,0,0,0,5.37.46h1.23V50.44a14.55,14.55,0,0,0-.1-1.52h2.54c0,.44-.12,1-.14,1.61,0,.27,0,.7,0,1.18a59.57,59.57,0,0,0,5.93-.6l0,2.18c-1.73.17-3.72.39-6,.48v3c2.35-.12,4.44-.34,6.48-.63l0,2.26c-2.21.26-4.18.41-6.46.5,0,1.08.1,2.21.17,3.24A19.17,19.17,0,0,1,382,65.84Zm-7.7-4.17a12.43,12.43,0,0,0-2.14-.2c-2,0-3.09.77-3.09,1.76s.88,1.7,2.92,1.7C372,67,373,66.64,373,65.1c0-.34,0-.79,0-1.34"/><path class="cls-2" d="M409.83,54.13c-1.42-.07-3.65-.12-7.11-.12,0,1.27,0,2.67,0,3.72a5.88,5.88,0,0,1,.84,3.17c0,3.17-1.68,6.89-7.32,8.52l-2-2c2.78-.63,5-1.66,6.12-3.44a4,4,0,0,1-5.67-3.81,4.31,4.31,0,0,1,4.44-4.28,4.63,4.63,0,0,1,1.32.17l0-2c-3.6,0-7.49.19-10.44.38l-.07-2.3c2.68,0,7.1-.17,10.48-.22,0-.5,0-.94,0-1.2a16.75,16.75,0,0,0-.2-1.73h2.74c-.05.31-.12,1.39-.12,1.73s0,.7,0,1.18h7.1Zm-10.71,8.09c1.23,0,2.14-1,1.83-3.24a1.94,1.94,0,0,0-1.85-1.1A2.13,2.13,0,0,0,397,60.11a2.07,2.07,0,0,0,2.16,2.11"/><path class="cls-2" d="M422.4,65.92a3.75,3.75,0,1,1-3.74-3.77,3.73,3.73,0,0,1,3.74,3.77m-1.44,0a2.31,2.31,0,1,0-2.3,2.3,2.3,2.3,0,0,0,2.3-2.3"/></g></g></svg>