<svg xmlns="http://www.w3.org/2000/svg" viewBox="0 0 438 76.19"><defs><style>.cls-1,.cls-4{fill:#fbce2f;}.cls-2,.cls-4{font-size:24px;font-family:KozGoPr6N-Regular-90ms-RKSJ-H, Kozuka Gothic Pr6N;}.cls-2{fill:#fff;}.cls-3{letter-spacing:0.1em;}</style></defs><title>Asset 4</title><g id="Layer_2" data-name="Layer 2"><g id="Layer_1-2" data-name="Layer 1"><rect width="387.31" height="34.57"/><rect y="41.25" width="433.52" height="34.57"/><path class="cls-1" d="M26.64,8.9l-8.07,14a3,3,0,0,0,2.6,4.51H37.32a3,3,0,0,0,2.6-4.51l-8.07-14a3,3,0,0,0-5.21,0"/><path d="M30.41,23a1.17,1.17,0,1,1-1.16-1.18A1.17,1.17,0,0,1,30.41,23m-.54-3c0,.39-.17.7-.6.7s-.59-.23-.63-.69l-.4-3.86V13.29a.87.87,0,0,1,1-.95c.71,0,1,.35,1,.95v2.94Z"/><text class="cls-2" transform="translate(18 26.05)"><tspan class="cls-3">　あなたの思っている以上に</tspan><tspan x="343.2" y="0">、</tspan></text><text class="cls-4" transform="translate(18 68.05)"><tspan class="cls-3">破損が進んでい</tspan><tspan x="184.8" y="0">る</tspan></text><text class="cls-2" transform="translate(229.2 68.05)"><tspan class="cls-3">場合があります</tspan><tspan x="184.8" y="0">。</tspan></text></g></g></svg>