<svg xmlns="http://www.w3.org/2000/svg" viewBox="0 0 629.71 197.72"><defs><style>.cls-1{fill:#fbce2f;}.cls-2{fill:#fff;}</style></defs><title>Asset 1</title><g id="Layer_2" data-name="Layer 2"><g id="Layer_1-2" data-name="Layer 1"><rect width="629.71" height="55.22"/><rect y="71.25" width="390.02" height="55.22"/><rect y="142.5" width="390.02" height="55.22"/><path class="cls-1" d="M32,14.58l-13.84,24a3,3,0,0,0,2.61,4.51H48.48a3,3,0,0,0,2.61-4.51l-13.84-24a3,3,0,0,0-5.21,0"/><path d="M36.32,36.81a1.67,1.67,0,1,1-1.66-1.68,1.67,1.67,0,0,1,1.66,1.68m-.78-4.24c-.07.56-.24,1-.86,1s-.84-.32-.9-1l-.58-5.54V22.83a1.25,1.25,0,0,1,1.44-1.36c1,0,1.46.5,1.46,1.36v4.22Z"/><path class="cls-2" d="M92.1,21.11c-.23.52-.52,1.48-.76,2.2,4.8,1.44,7.8,5,7.8,9.51,0,5.64-3.6,10.8-13,12.28L84,41.78c7.35-.8,11.19-4.56,11.19-9.16,0-2.71-1.72-5.15-5-6.19A32,32,0,0,1,81.67,38.9C82,40,82.27,41,82.59,42L79,43.06c-.2-.6-.4-1.24-.56-1.92A13.93,13.93,0,0,1,72,43.06c-2.76,0-5-1.68-5-5.36,0-5.08,4.36-10.39,9.84-12.91.08-1.84.24-3.68.4-5.4H75.27c-1.88,0-5-.16-6.64-.28l-.12-3.68a63,63,0,0,0,6.88.52h2.16l.28-2.68a19.15,19.15,0,0,0,.08-2.08l4.16.12a18.56,18.56,0,0,0-.48,1.88c-.16.76-.32,1.68-.48,2.64a74.71,74.71,0,0,0,13.67-1.68l0,3.68a127.6,127.6,0,0,1-14.15,1.44c-.12,1.36-.24,2.8-.36,4.28a25.56,25.56,0,0,1,6.32-.88,10.11,10.11,0,0,1,1.12,0,14.93,14.93,0,0,0,.44-2.56ZM77.55,37.46a49.57,49.57,0,0,1-.88-8.91c-3.48,2.15-6,5.67-6,8.43,0,1.48.64,2.2,2,2.2a9.49,9.49,0,0,0,4.8-1.72m2.64-9.55a41.26,41.26,0,0,0,.6,6.91,26,26,0,0,0,5.92-8.91h-.24a20.6,20.6,0,0,0-6.28,1Z"/><path class="cls-2" d="M129.63,19.39a59.1,59.1,0,0,1-7,1.4A69.47,69.47,0,0,1,114,37.62l-3.84-2a57.35,57.35,0,0,0,8.28-14.43c-1,0-1.88.08-2.84.08-1.52,0-3.16,0-4.76-.16l-.28-3.68c1.56.16,3.44.24,5,.24,1.32,0,2.68,0,4.08-.16a31.58,31.58,0,0,0,1.16-6.72l4.36.4c-.32,1.36-.84,3.56-1.44,5.8a41.81,41.81,0,0,0,5.76-1.36Zm4.88,4.12a42.42,42.42,0,0,0,0,4.64c0,1.27.16,3.55.28,5.79a26.36,26.36,0,0,1,8.19,5l-2.12,3.4a31.86,31.86,0,0,0-5.91-4.4V39c0,3.36-2,6.08-7.24,6.08-4.6,0-8.32-2-8.32-6.08,0-3.72,3.36-6.36,8.28-6.36a18,18,0,0,1,3.32.28c-.16-3.12-.36-6.83-.44-9.43Zm-3.44,12.87a13.34,13.34,0,0,0-3.64-.48c-2.64,0-4.36,1.16-4.36,2.76s1.36,2.84,4.08,2.84c3,0,4-1.68,4-3.72,0-.4,0-.84,0-1.4M141.9,25a51.13,51.13,0,0,0-9.23-5.52l2-3.08a64.94,64.94,0,0,1,9.47,5.32Z"/><path class="cls-2" d="M175,19.83a78.64,78.64,0,0,1-8,1.32c-.36,1.72-.8,3.48-1.24,5.16a119,119,0,0,1-6.24,18.23l-4.4-1.48c2.4-4,5.24-12.19,6.72-17.75.36-1.2.68-2.52,1-3.8-1.12,0-2.16.08-3.16.08-1.84,0-3.28-.08-4.72-.16l-.08-3.92a36.69,36.69,0,0,0,4.84.32c1.24,0,2.56,0,4-.16.2-1.16.4-2.2.48-2.92a19,19,0,0,0,.12-3.6l4.84.36c-.28,1-.6,2.6-.76,3.4l-.48,2.32A67.86,67.86,0,0,0,175,15.87ZM173.71,33.3a14.93,14.93,0,0,0-.56,3.44c0,1.8,1,3.4,6,3.4a44.32,44.32,0,0,0,7.92-.8l-.12,4a54.48,54.48,0,0,1-7.83.56c-6.44,0-9.76-2.12-9.76-6a26.25,26.25,0,0,1,.6-5Zm-1.56-9.75a69.37,69.37,0,0,1,7.39-.4,66.25,66.25,0,0,1,6.92.36l-.12,3.8a57,57,0,0,0-6.71-.48,65,65,0,0,0-7.48.4Z"/><path class="cls-2" d="M213.91,40.62a22.43,22.43,0,0,0,3.52-.56C222.5,38.9,227,35.22,227,28.83c0-5.76-3.43-10.28-9.51-11a90.66,90.66,0,0,1-2.36,11.12c-2.4,8.07-5.68,12.59-9.64,12.59s-7.52-4.44-7.52-11c0-8.8,7.8-16.44,17.72-16.44,9.51,0,15.55,6.64,15.55,15s-5.32,14-15,15.39Zm-2.8-12.55a54.88,54.88,0,0,0,2.16-10.2C206.15,19,202,25.23,202,30.11c0,4.55,2,6.63,3.64,6.63s3.64-2.56,5.48-8.67"/><path class="cls-2" d="M240.67,42.26A27.85,27.85,0,0,0,245,32.9l3.32,1.24c-1,3.24-2.36,7.32-4.28,10Zm32-12.76H244.55V11.27h28.07ZM248.07,18.83h8.76V14.51h-8.76Zm0,7.44h8.76v-4.4h-8.76Zm15.2,15.79c1.84,0,2.12-.64,2.35-4.88a11.09,11.09,0,0,0,3.4,1.4c-.48,5.52-1.6,6.84-5.47,6.84h-7.44c-4.68,0-5.88-1-5.88-4.68V33.46H254v7.28c0,1.12.4,1.32,2.48,1.32Zm-1.2-4.2a35.9,35.9,0,0,0-8-5.76l2.44-2.32a36.84,36.84,0,0,1,8.23,5.52Zm6.87-23.35h-8.51v4.32h8.51Zm0,7.36h-8.51v4.4h8.51Zm2.48,10.67a37.52,37.52,0,0,1,5.44,9.72l-3.6,1.52a37.8,37.8,0,0,0-5.16-9.84Z"/><path class="cls-2" d="M292.91,25.63c2.76-.88,9.36-3.2,14.08-3.2,5.91,0,10,3.52,10,9.19,0,7.44-6.88,11.76-18.39,12.48L297,40.22c8.76-.28,15.91-2.68,15.91-8.68,0-3.16-2.47-5.43-6.23-5.43-4.8,0-13.12,3.43-16,4.63L289,26.63a37.6,37.6,0,0,0,3.92-1"/><path class="cls-2" d="M333.75,15.91c2.92-.24,10-.92,17.24-1.56,4.24-.32,8.19-.56,10.91-.64v4a34.81,34.81,0,0,0-7.67.6c-5.28,1.56-8.76,7.2-8.76,11.87,0,7.2,6.72,9.6,13.27,9.88l-1.44,4.28c-7.75-.4-15.91-4.56-15.91-13.32a15.73,15.73,0,0,1,6.72-12.83c-3.48.4-13.2,1.36-17.6,2.28l-.44-4.36c1.56,0,2.92-.12,3.68-.2"/><path class="cls-2" d="M380,19.23a88,88,0,0,0,.28,8.92c.6,6.23,2.2,10.39,4.84,10.39,2,0,3.72-4.31,4.6-8L393,34.3c-2.52,6.8-5,9.16-7.88,9.16-4,0-7.68-3.84-8.76-14.27a105.16,105.16,0,0,1-.44-10.6,19.92,19.92,0,0,0-.28-3.72l4.84.08a32.16,32.16,0,0,0-.4,4.28M407.78,35.7l-4.12,1.6c-.64-6.8-2.92-15.31-6.91-20L400.7,16c3.64,4.6,6.56,13.31,7.08,19.75"/><path class="cls-2" d="M445.1,15.47c-.8.52-1.72,1.12-2.44,1.64-2,1.44-6.83,5.64-9.63,8a14.74,14.74,0,0,1,4.68-.68c6.63,0,11.55,4.08,11.55,9.59,0,6.36-5.07,10.88-13.95,10.88-5.48,0-9.16-2.48-9.16-6,0-2.92,2.68-5.64,6.56-5.64a7.92,7.92,0,0,1,8.32,7,6.47,6.47,0,0,0,4.15-6.2c0-3.71-3.75-6.35-8.59-6.35-6.32,0-10.08,2.95-14.76,7.91l-2.92-3C422,30,427,25.87,429.27,24S436,18.31,438,16.59c-2.08.08-8.84.36-10.92.48-1,.08-2,.16-2.92.28l-.12-4.12a28.52,28.52,0,0,0,3.16.2c2.08,0,11-.24,13.2-.44a14.36,14.36,0,0,0,2.52-.4ZM437.39,41.1c-.32-2.92-2-4.84-4.68-4.84-1.64,0-2.84,1-2.84,2.2,0,1.72,2,2.8,4.72,2.8a20.71,20.71,0,0,0,2.8-.16"/><path class="cls-2" d="M477.31,34.9c-5.44,2.48-11.32,5-15.76,6.88l-1.36-3.88c1.52-.56,3.4-1.28,5.44-2.08l-.76-24,3.88-.16.68,22.63c2.32-1,4.68-2,7-3Zm17.07,11.24A89.49,89.49,0,0,0,486.11,36a28.53,28.53,0,0,1-13,10.28,18.76,18.76,0,0,0-3-3.28c13.28-4.92,17.43-14.55,19.07-31.39l4.08.4c-.92,8.4-2.4,15.12-5.07,20.48a99.69,99.69,0,0,1,9.31,10.63ZM479.23,25.79a39.72,39.72,0,0,0-6.08-9.8l3.4-1.64a38.25,38.25,0,0,1,6.28,9.52Z"/><polygon class="cls-2" points="540.66 40.54 540.66 44.3 504.87 44.3 504.87 40.54 519.47 40.54 519.47 10.07 523.47 10.07 523.47 21.95 537.9 21.95 537.9 25.67 523.47 25.67 523.47 40.54 540.66 40.54"/><path class="cls-2" d="M558,12.83c-.28.76-.68,2.32-.84,3a93.79,93.79,0,0,0-2,14.92,29.43,29.43,0,0,0,.28,4.15c.6-1.6,1.4-3.52,2-4.95l2.08,1.59a78.4,78.4,0,0,0-2.84,9.24,7.3,7.3,0,0,0-.2,1.8c0,.4,0,1,.08,1.48l-3.6.24a49.46,49.46,0,0,1-1.52-12.8c0-5.91,1.28-12.63,1.72-15.79a29.37,29.37,0,0,0,.36-3.28Zm9.12,19.35a15,15,0,0,0-.48,3.52c0,1.8,1.32,3.2,6.12,3.2a44.49,44.49,0,0,0,9.87-1l.08,4.24a53.56,53.56,0,0,1-10,.8c-6.72,0-9.84-2.32-9.84-6.16a24.23,24.23,0,0,1,.68-4.88Zm14.35-16.51v4.08a99.89,99.89,0,0,1-16.59,0v-4a74.14,74.14,0,0,0,16.59,0"/><path class="cls-2" d="M601.35,45.5a73,73,0,0,0-8.72-8.84l3.28-2.88a73.81,73.81,0,0,1,8.84,8.84Z"/><path class="cls-1" d="M26.55,111.3v3.08h-3.2V100.91a24.21,24.21,0,0,1-1.92,2.71A22.86,22.86,0,0,0,20,99.43c2.68-3.56,4.48-8.88,5.56-14.56H20.87V81.51H34.43v3.36H29.11a68.23,68.23,0,0,1-2.4,8.84h6.84V111.3ZM30.31,97H26.55v11h3.76Zm25-1.36a31,31,0,0,1-6.12,13,23.23,23.23,0,0,0,7.84,4.56,14.72,14.72,0,0,0-2.36,3,26.28,26.28,0,0,1-7.83-5.08,27.15,27.15,0,0,1-7.56,5,11.43,11.43,0,0,0-2-2.84,22.68,22.68,0,0,0,7.32-4.64,31.87,31.87,0,0,1-5.24-8.91c-.28,5.43-1.2,11.87-4.2,16.43a11.86,11.86,0,0,0-2.76-1.84c3.48-5.36,3.84-13,3.84-18.47V85.47h8V79.55h3.31v5.92h6l.56-.12,2.32.56A60.07,60.07,0,0,1,54.22,94l-2.92-.68a46.91,46.91,0,0,0,1.2-4.6h-5V95h5l.64-.12ZM39.47,95h4.76v-6.2H39.47Zm2.64,3.2a27.86,27.86,0,0,0,4.76,8.07,26.11,26.11,0,0,0,4.35-8.07Z"/><path class="cls-1" d="M73.63,101.26V112c0,1.92-.4,2.92-1.6,3.52s-2.88.64-5.6.6a12.72,12.72,0,0,0-1-3.4c1.68.08,3.32.08,3.84,0s.76-.16.76-.76V102.3l-5.08,1.44L64,100.1c1.68-.36,3.76-.88,6-1.47V90.71h-5.4V87.27H70V79.51h3.64v7.76h4.28v3.44H73.63v6.92c1.44-.41,2.92-.8,4.36-1.24l.48,3.47Zm20.63,8.08a47.18,47.18,0,0,1,7.12,5l-3.68,1.88a37.21,37.21,0,0,0-6.67-5.2l2.36-1.72H84.63L87.31,111A33.28,33.28,0,0,1,78,116.26a21.62,21.62,0,0,0-2.52-2.56,29.47,29.47,0,0,0,8-4.36H79.71V91.47H99.38v17.87Zm4.2-19.71H80.71V80.87H98.46Zm-15.23,7H95.66V94.15H83.23Zm0,5H95.66V99.1H83.23Zm0,5H95.66v-2.52H83.23ZM94.82,83.51H84.11V87H94.82Z"/><path class="cls-1" d="M124.31,82c-.2.84-.44,1.84-.6,2.72-.2,1.2-.56,3.12-.92,4.92,1.6-.12,3-.2,4-.2,3.8,0,6.71,1.6,6.71,7.12,0,4.67-.59,11-2.23,14.35-1.32,2.68-3.36,3.44-6.12,3.44a22.07,22.07,0,0,1-4.72-.6l-.68-4.16a21.49,21.49,0,0,0,4.88.84,3.13,3.13,0,0,0,3.24-1.88c1.2-2.48,1.76-7.44,1.76-11.55,0-3.4-1.52-4-4-4-.8,0-2.12.08-3.6.2-1.44,5.84-4.24,14.91-8.16,21.23l-4.12-1.64c4-5.28,6.8-13.79,8.2-19.15-1.8.2-3.4.36-4.32.48s-2.8.36-3.92.56l-.4-4.32c1.36.08,2.48,0,3.84,0s3.4-.2,5.6-.4a47.09,47.09,0,0,0,1-8.48Zm14.23,5.16a75,75,0,0,1,6.52,13.39l-4,1.88C140,98.23,137,91.27,134.19,87.91l3.71-1.64.64.88a42.87,42.87,0,0,0-3.2-5.52l2.6-1.08a58.6,58.6,0,0,1,3.24,5.52Zm4.64-1.72A36.5,36.5,0,0,0,139.9,80l2.6-1.08a57.17,57.17,0,0,1,3.32,5.48Z"/><path class="cls-1" d="M161,107.82c1.72,2.76,4.88,4,9.32,4.2s13.79.08,18.87-.28a16.2,16.2,0,0,0-1.2,3.64c-4.6.2-13.07.28-17.71.12-5-.2-8.4-1.52-10.84-4.6-1.68,1.64-3.44,3.24-5.4,5l-1.84-3.68a55.16,55.16,0,0,0,5.24-4.08V98.46h-4.8V95H161Zm-1.92-18.55A28.56,28.56,0,0,0,153,82.59l2.84-2.08a29.73,29.73,0,0,1,6.32,6.4Zm6.72,2.84A32.91,32.91,0,0,1,162.91,95a19,19,0,0,0-2.8-2.88,30.54,30.54,0,0,0,9.08-12.48l3.72,1a44.44,44.44,0,0,1-2.36,4.8h5.52a35.76,35.76,0,0,0,2-5.56l4,.8c-.71,1.6-1.51,3.28-2.27,4.76h7.79v3.16h-8.4v3.48h7.4v3.08h-7.4v3.47h7.28v3.08h-7.28v3.6h9.08v3.16H165.83Zm9.8-3.48h-6.16v3.48h6.16Zm0,6.56h-6.16v3.47h6.16Zm0,6.55h-6.16v3.6h6.16Z"/><path class="cls-1" d="M216.15,84.87c-1.84,2.8-5.36,9.12-7.36,12.8A8.54,8.54,0,0,1,214,95.83c2.8,0,4.64,1.8,4.8,5,.08,2.07,0,5.15.16,7a2.56,2.56,0,0,0,2.88,2.48c4,0,6.39-5,7.47-9.52l3.36,2.72c-2.08,6.6-5.56,11-11.47,11-4.28,0-6-2.64-6.12-5.2-.12-2.24-.08-5.4-.2-7.32a2.42,2.42,0,0,0-2.64-2.51c-3,0-5.6,3-7.08,6.19a69.69,69.69,0,0,0-3.24,8.92l-4.4-1.48c2.92-8,11.6-24.67,13.72-28.47.48-1,1.12-2.08,1.68-3.48l4.44,1.8c-.36.48-.8,1.2-1.24,1.88"/><path class="cls-1" d="M245.59,86.11c2.88-.28,10-1,17.24-1.56,4.2-.36,8.19-.6,10.87-.68l0,4a37.82,37.82,0,0,0-7.71.56c-5.24,1.6-8.72,7.2-8.72,11.87,0,7.24,6.72,9.6,13.23,9.92l-1.44,4.24c-7.75-.4-15.87-4.56-15.87-13.28a15.69,15.69,0,0,1,6.68-12.83c-3.44.36-13.16,1.32-17.6,2.28l-.4-4.36c1.52,0,2.88-.12,3.68-.2m25.83,11.68-2.48,1.11a38.19,38.19,0,0,0-3.19-5.59l2.39-1a55.84,55.84,0,0,1,3.28,5.52M276,96l-2.44,1.2a37.54,37.54,0,0,0-3.36-5.52l2.4-1.08A62.59,62.59,0,0,1,276,96"/><path class="cls-1" d="M292,89.23a88,88,0,0,0,.28,8.92c.6,6.23,2.2,10.39,4.84,10.39,2,0,3.72-4.31,4.6-8l3.2,3.72c-2.52,6.8-5,9.16-7.88,9.16-4,0-7.68-3.84-8.76-14.27a105.16,105.16,0,0,1-.44-10.6,19.92,19.92,0,0,0-.28-3.72l4.84.08a32.16,32.16,0,0,0-.4,4.28m27.75,16.47-4.12,1.6c-.64-6.8-2.92-15.31-6.92-20l4-1.32c3.64,4.6,6.56,13.31,7.08,19.75"/><path class="cls-1" d="M357.1,85.47c-.8.52-1.72,1.12-2.44,1.64-2,1.44-6.83,5.64-9.63,8a14.74,14.74,0,0,1,4.68-.68c6.63,0,11.55,4.08,11.55,9.59,0,6.36-5.07,10.88-13.95,10.88-5.48,0-9.16-2.48-9.16-6,0-2.92,2.68-5.64,6.56-5.64a7.92,7.92,0,0,1,8.32,7,6.47,6.47,0,0,0,4.15-6.2c0-3.71-3.75-6.35-8.59-6.35-6.32,0-10.08,3-14.76,7.91l-2.92-3C334,100,339,95.87,341.27,94S348,88.31,350,86.59c-2.08.08-8.84.36-10.92.48-1,.08-2,.16-2.92.28l-.12-4.12a28.52,28.52,0,0,0,3.16.2c2.08,0,11-.24,13.2-.44a14.36,14.36,0,0,0,2.52-.4Zm-7.71,25.63c-.32-2.92-2-4.84-4.68-4.84-1.64,0-2.84,1-2.84,2.2,0,1.72,2,2.8,4.72,2.8a20.71,20.71,0,0,0,2.8-.16"/><path class="cls-2" d="M33.23,173.5c-4,2-8.32,4.2-11.68,5.8l-1.44-3.72c1.44-.56,3.24-1.32,5.2-2.16V161.51h-4.4V158h4.4v-8.08h3.44V158h4v3.52h-4V171.9c1.2-.56,2.44-1.12,3.68-1.68ZM41,168.78a17.77,17.77,0,0,1-1.48,2.4H56.22s0,.92-.08,1.4c-.64,8-1.24,11.12-2.32,12.32a3.48,3.48,0,0,1-2.4,1.12,31.33,31.33,0,0,1-4,0,7.35,7.35,0,0,0-.84-3,26.59,26.59,0,0,0,3.11.16c.6,0,.92,0,1.24-.44.6-.68,1.12-3,1.6-8.6h-2.4c-1.59,4.64-4.71,9.64-8,12.16a11.94,11.94,0,0,0-2.68-2.08c3.12-2.08,5.92-6,7.6-10.08H43.87a30.74,30.74,0,0,1-9.52,10.44,10.32,10.32,0,0,0-2.48-2.24,25.89,25.89,0,0,0,8.64-8.2H37.15a27.16,27.16,0,0,1-4.92,4.28,20.15,20.15,0,0,0-2.52-2.32,21.47,21.47,0,0,0,7.56-7.36H32.15v-3.15h25v3.15Zm13.35-5.07H35.87V150.59H54.34ZM50.9,153.27H39.23v2.6H50.9Zm0,5.12H39.23V161H50.9Z"/><path class="cls-2" d="M84.35,149.59a44.33,44.33,0,0,0,17.31,14,16.51,16.51,0,0,0-2.44,3.32,51.28,51.28,0,0,1-6.47-4v2.84H72.83V163A54.49,54.49,0,0,1,66.39,167a14.3,14.3,0,0,0-2.28-3c6.84-3.48,13.4-9.48,16.44-14.48Zm-13.8,20.59H95.18v16.08H91.39V184.7H74.19v1.56H70.55Zm21.51-7.83a46,46,0,0,1-9.43-9.12,42.79,42.79,0,0,1-9,9.12Zm-17.87,19H91.38v-7.84H74.19Z"/><path class="cls-2" d="M124.31,152c-.2.84-.44,1.84-.6,2.72-.2,1.2-.56,3.12-.92,4.92,1.6-.12,3-.2,4-.2,3.8,0,6.71,1.6,6.71,7.12,0,4.67-.59,10.95-2.23,14.35-1.32,2.68-3.36,3.44-6.12,3.44a22.07,22.07,0,0,1-4.72-.6l-.68-4.16a21.49,21.49,0,0,0,4.88.84,3.13,3.13,0,0,0,3.24-1.88c1.2-2.48,1.76-7.44,1.76-11.55,0-3.4-1.52-4-4-4-.8,0-2.12.08-3.6.2-1.44,5.84-4.24,14.91-8.16,21.23l-4.12-1.64c4-5.28,6.8-13.79,8.2-19.15-1.8.2-3.4.36-4.32.48s-2.8.36-3.92.56l-.4-4.32c1.36.08,2.48,0,3.84,0s3.4-.2,5.6-.4a47.09,47.09,0,0,0,1-8.48Zm14.23,5.16a75,75,0,0,1,6.52,13.39l-4,1.88c-1.12-4.23-4.12-11.19-6.91-14.55l3.71-1.64.64.88a42.87,42.87,0,0,0-3.2-5.52l2.6-1.08a58.6,58.6,0,0,1,3.24,5.52Zm4.64-1.72A36.5,36.5,0,0,0,139.9,150l2.6-1.08a57.17,57.17,0,0,1,3.32,5.48Z"/><path class="cls-2" d="M180.1,161.11c-.23.52-.52,1.48-.76,2.2,4.8,1.44,7.8,5,7.8,9.51,0,5.64-3.6,10.8-13,12.28L172,181.78c7.35-.8,11.19-4.56,11.19-9.16,0-2.71-1.72-5.15-5-6.19a32,32,0,0,1-8.56,12.47c.28,1.08.6,2.12.92,3.08L167,183.06c-.2-.6-.4-1.24-.56-1.92a13.93,13.93,0,0,1-6.44,1.92c-2.76,0-5-1.68-5-5.36,0-5.08,4.36-10.39,9.84-12.91.08-1.84.24-3.68.4-5.4h-1.92c-1.88,0-5-.16-6.64-.28l-.12-3.68a63,63,0,0,0,6.88.52h2.16l.28-2.68a19.15,19.15,0,0,0,.08-2.08l4.16.12a18.56,18.56,0,0,0-.48,1.88c-.16.76-.32,1.68-.48,2.64a74.71,74.71,0,0,0,13.67-1.68l0,3.68a127.6,127.6,0,0,1-14.15,1.44c-.12,1.36-.24,2.8-.36,4.28a25.56,25.56,0,0,1,6.32-.88,10.11,10.11,0,0,1,1.12,0,14.93,14.93,0,0,0,.44-2.56Zm-14.55,16.35a49.57,49.57,0,0,1-.88-8.91c-3.48,2.15-6,5.67-6,8.43,0,1.48.64,2.2,2,2.2a9.49,9.49,0,0,0,4.8-1.72m2.64-9.55a41.26,41.26,0,0,0,.6,6.91,26,26,0,0,0,5.92-8.91h-.24a20.6,20.6,0,0,0-6.28,1Z"/><path class="cls-2" d="M208.75,151.39a68.88,68.88,0,0,0-1.72,9.8c1.72-3.64,5.56-7.88,10.32-7.88,5.39,0,9.39,5.32,9.39,13.84,0,11-6.92,16.11-17,17.95l-2.4-3.6c8.68-1.36,15.15-4.56,15.15-14.35,0-6.16-2-10.2-5.83-10.2-4.8,0-9.2,7.12-9.52,12.32a17.85,17.85,0,0,0,.12,4.55l-3.88.28a47.56,47.56,0,0,1-.48-6.39,103.61,103.61,0,0,1,1.2-12.76c.16-1.32.28-2.68.32-3.72Z"/><path class="cls-2" d="M271.14,182.86a29.62,29.62,0,0,0-8.83-5.76c0,.8,0,1.48,0,2,0,3-2.16,5.76-7.32,5.76-6,0-9.24-2.2-9.24-6.2,0-3.76,3.56-6.4,9.48-6.4,1,0,2,.08,2.92.17-.08-1.48-.12-3.08-.16-4.52h-2.16c-2.52,0-7-.2-9.76-.52l0-3.76a67.71,67.71,0,0,0,9.76.76h2v-5h-2a79.64,79.64,0,0,1-9-.6v-3.64a60.17,60.17,0,0,0,9,.76h2v-2.24a25,25,0,0,0-.16-2.52h4.24c-.08.72-.2,1.6-.24,2.68,0,.44,0,1.16,0,2a96,96,0,0,0,9.87-1l0,3.64c-2.88.28-6.2.64-9.95.8v5c3.91-.2,7.39-.56,10.79-1l0,3.76c-3.68.44-7,.68-10.75.84,0,1.8.16,3.68.28,5.39a31.57,31.57,0,0,1,11.31,6.12Zm-12.83-7a20.67,20.67,0,0,0-3.56-.32c-3.36,0-5.16,1.28-5.16,2.92s1.48,2.84,4.88,2.84c2.24,0,3.88-.64,3.88-3.2,0-.56,0-1.32,0-2.24"/><path class="cls-2" d="M319.78,159.87c-2.36-.12-6.08-.2-11.83-.2,0,2.12,0,4.44,0,6.2a9.7,9.7,0,0,1,1.39,5.27c0,5.28-2.79,11.48-12.19,14.2l-3.4-3.36c4.64-1,8.28-2.76,10.2-5.72a6.75,6.75,0,0,1-9.44-6.35,7.17,7.17,0,0,1,7.4-7.12,7.71,7.71,0,0,1,2.2.28l0-3.36c-6,.08-12.48.32-17.4.64l-.12-3.84c4.48,0,11.84-.28,17.48-.36,0-.84,0-1.56-.08-2-.08-1-.2-2.32-.32-2.88h4.56c-.08.52-.2,2.32-.2,2.88s0,1.16,0,2h11.83ZM302,173.34c2,0,3.56-1.64,3-5.39a3.23,3.23,0,0,0-3.08-1.84,3.55,3.55,0,0,0-3.56,3.71,3.44,3.44,0,0,0,3.6,3.52"/><path class="cls-2" d="M340.75,179.5a6.24,6.24,0,1,1-6.24-6.28,6.22,6.22,0,0,1,6.24,6.28m-2.4,0a3.84,3.84,0,1,0-3.84,3.84,3.84,3.84,0,0,0,3.84-3.84"/></g></g></svg>