<svg xmlns="http://www.w3.org/2000/svg" viewBox="0 0 197.78 29.4"><defs><style>.cls-1{fill:#f4a109;}</style></defs><title>Asset 3</title><g id="Layer_2" data-name="Layer 2"><g id="Layer_1-2" data-name="Layer 1"><path d="M13.77,6.37a4.93,4.93,0,0,0-4.3,2.25,10.9,10.9,0,0,0-1.54,6.22q0,8.25,6.27,8.25a12.87,12.87,0,0,0,3.67-.53,37.42,37.42,0,0,0,3.58-1.27v6.52a19.73,19.73,0,0,1-8.09,1.58q-6.46,0-9.91-3.75T0,14.81A17.36,17.36,0,0,1,1.67,7a11.94,11.94,0,0,1,4.8-5.16A14.5,14.5,0,0,1,13.85,0a20.38,20.38,0,0,1,8.85,2L20.33,8.13a24.38,24.38,0,0,0-3.16-1.25,11.05,11.05,0,0,0-3.4-.51"/><path d="M55.73,14.69q0,7.2-3.53,11T41.84,29.4q-6.72,0-10.3-3.77T28,14.65q0-7.12,3.56-10.89T41.88,0q6.82,0,10.34,3.73t3.51,11m-19.65,0q0,8.28,5.76,8.28a5,5,0,0,0,4.35-2c.94-1.34,1.42-3.43,1.42-6.27s-.48-5-1.44-6.32a4.91,4.91,0,0,0-4.29-2q-5.79,0-5.8,8.36"/><path class="cls-1" d="M87.16.45V17.64c0,3.73-1,6.63-3.17,8.68s-5.17,3.07-9.15,3.07-6.88-1-9-3-3.14-4.86-3.14-8.6V.45h7.75V17.21a6.81,6.81,0,0,0,1.14,4.39,4.88,4.88,0,0,0,6.77,0,7.31,7.31,0,0,0,1.06-4.44V.45Z"/><polygon points="107.76 29 100.04 29 100.04 6.76 93.07 6.76 93.07 0.45 114.71 0.45 114.71 6.76 107.76 6.76 107.76 29"/><rect x="120.79" y="0.45" width="7.75" height="28.56"/><path d="M163.44,14.69q0,7.2-3.54,11T149.55,29.4q-6.72,0-10.3-3.77t-3.59-11q0-7.12,3.57-10.89T149.59,0q6.81,0,10.33,3.73t3.52,11m-19.65,0q0,8.28,5.76,8.28a5,5,0,0,0,4.35-2q1.41-2,1.41-6.27t-1.43-6.32a4.91,4.91,0,0,0-4.29-2q-5.81,0-5.8,8.36"/><path d="M197.78,29H187.66L177.23,8.89h-.17c.25,3.16.37,5.58.37,7.24V29h-6.84V.45h10.08l10.39,19.84h.12q-.27-4.3-.27-6.93V.45h6.87Z"/></g></g></svg>