<svg xmlns="http://www.w3.org/2000/svg" viewBox="0 0 180 60.81"><defs><style>.cls-1{fill:#f4a109;}.cls-2{fill:#02172c;}.cls-3{fill:#113055;}.cls-4{fill:#0e2e53;}.cls-5{fill:#231815;}</style></defs><title>Asset 2</title><g id="Layer_2" data-name="Layer 2"><g id="Layer_1-2" data-name="Layer 1"><polygon class="cls-1" points="22.91 49.86 0 49.86 22.63 16.62 45.53 16.62 22.91 49.86"/><polygon class="cls-2" points="64.16 33.24 41.25 33.24 53.17 16.62 76.08 16.62 64.16 33.24"/><polygon class="cls-3" points="53.17 16.62 76.08 16.62 64.16 0 41.25 0 53.17 16.62"/><polygon class="cls-3" points="53.17 49.86 76.08 49.86 64.16 33.24 41.25 33.24 53.17 49.86"/><path class="cls-1" d="M100.07,49.86,93.54,38.05H88.36V49.86H81.28V16.62H96.83c6.93,0,11.17,4.54,11.17,10.72,0,5.88-3.69,9-7.28,9.86l7.48,12.66Zm.7-22.52c0-2.8-2.14-4.49-5-4.49H88.36v9h7.43c2.84,0,5-1.69,5-4.48"/><rect class="cls-1" x="113.33" y="16.62" width="7.08" height="33.24"/><polygon class="cls-4" points="125.78 49.86 125.78 44.13 141.48 22.85 125.78 22.85 125.78 16.62 150.75 16.62 150.75 22.3 135.05 43.63 151.1 43.63 151.1 49.86 125.78 49.86"/><polygon class="cls-1" points="156.48 49.86 156.48 16.62 180 16.62 180 22.85 163.55 22.85 163.55 29.88 179.65 29.88 179.65 36.11 163.55 36.11 163.55 43.63 180 43.63 180 49.86 156.48 49.86"/><path class="cls-5" d="M51.23,58.68a3.85,3.85,0,0,1-.56-1v3.07h-.49V57.67a6,6,0,0,1-.79,1.69l-.23-.62a6.15,6.15,0,0,0,1-2.1h-.87v-.49h.91V54.94h.49v1.21h.78v.49h-.78v.41a4.88,4.88,0,0,0,.87,1.19Zm2.33,2.1h-.49V58.47a5.59,5.59,0,0,1-1.53,1.8l-.36-.44a5.86,5.86,0,0,0,1.74-1.91H51.45v-.49h1.62v-1h-.8a3.37,3.37,0,0,1-.46.8L51.35,57a3.76,3.76,0,0,0,.77-1.85l.52.07a4.2,4.2,0,0,1-.19.79h.62v-1h.49v1H55v.48H53.56v1h1.53v.49H53.74a5,5,0,0,0,1.44,1.86l-.29.52a4.91,4.91,0,0,1-1.33-1.86Z"/><path class="cls-5" d="M65.17,60a33.26,33.26,0,0,1-3.28.55L61.82,60c.26,0,.6,0,1.39-.17v-2H62v-.49h3v.49H63.73v1.9c.91-.15,1.18-.21,1.42-.27Zm.5-5c0,.21,0,.46,0,1h2v.49h-2a6.43,6.43,0,0,0,.8,3.34c.07.1.25.35.42.35s.31-.43.35-1l.49.22c-.07.48-.2,1.42-.78,1.42s-1.21-1-1.37-1.54a9.07,9.07,0,0,1-.43-2.75H61.84V56h3.31c0-.29,0-.67,0-1Zm1.37,1a5.07,5.07,0,0,0-1-.66l.29-.38a6.06,6.06,0,0,1,1,.65Z"/><path class="cls-5" d="M79,57.14H75.67v-.35a7,7,0,0,1-1.12.59l-.25-.51a5.55,5.55,0,0,0,2.74-2h.57a6,6,0,0,0,2.74,2l-.27.5A7.32,7.32,0,0,1,79,56.8Zm-.55,1.5A9.29,9.29,0,0,1,80,60.5l-.45.31c-.1-.17-.18-.29-.31-.49-1,.15-3.62.27-4.59.27l-.06-.52h.87a10.54,10.54,0,0,0,.78-1.63H74.5V58h5.62v.48H76.84c-.15.35-.41.89-.81,1.62l1,0c.77,0,1.42-.09,1.88-.13a10.27,10.27,0,0,0-.87-1Zm.35-2a6.52,6.52,0,0,1-1.47-1.36,6.06,6.06,0,0,1-1.46,1.36Z"/><path class="cls-5" d="M88.5,60.78H88V58.23a5.72,5.72,0,0,1-.87.66l-.21-.51a4.55,4.55,0,0,0,1.84-2H87V56h1v-1h.51v1h.81v.47a4.66,4.66,0,0,1-.69,1.12,4.85,4.85,0,0,0,.91.82l-.29.46a4.05,4.05,0,0,1-.74-.75Zm2.78-5.85v1.82h1.39v.51H91.28V60h1.53v.52H89.14V60h1.61V57.26H89.44v-.51h1.31V54.93Z"/><path class="cls-5" d="M104.92,56.87c-.31,2.55-1.54,3.33-4,3.59l-.16-.55c1.62-.12,3.16-.52,3.52-2.51H100v-.53Zm-.38-.95h-4.13V55.4h4.13Z"/><path class="cls-5" d="M115.74,60.51h-.6V57.58a10.37,10.37,0,0,1-2.48,1.26l-.28-.52a9.36,9.36,0,0,0,4.51-3.18l.53.35a11.36,11.36,0,0,1-1.68,1.64Z"/><path class="cls-5" d="M129.15,56.22a6.83,6.83,0,0,1-1,1.86A23.27,23.27,0,0,1,130.31,60l-.47.46a20.5,20.5,0,0,0-2-1.92,7.28,7.28,0,0,1-2.55,2l-.34-.47a6.77,6.77,0,0,0,3.7-4h-3.38V55.5h3.43Zm.2-1.31a5.22,5.22,0,0,1,.57,1.21l-.44.23a5,5,0,0,0-.54-1.24Zm.92-.26a5.86,5.86,0,0,1,.57,1.22l-.44.22a5,5,0,0,0-.54-1.23Z"/></g></g></svg>