<svg xmlns="http://www.w3.org/2000/svg" viewBox="0 0 56 56"><defs><style>.cls-1{fill:none;stroke:#000;stroke-miterlimit:10;stroke-width:2px;}</style></defs><title>Asset 5</title><g id="Layer_2" data-name="Layer 2"><g id="Layer_1-2" data-name="Layer 1"><path d="M38.26,19H17.7a2.2,2.2,0,0,0-2.19,2.19V35.81A2.2,2.2,0,0,0,17.7,38H38.26a2.2,2.2,0,0,0,2.2-2.19V21.19A2.2,2.2,0,0,0,38.26,19M38,20.46,28,30.39,18,20.46Zm-21,15v-14l7,7Zm1,1,7-7,2.47,2.45a.74.74,0,0,0,1,0L31,29.53l7,7Zm21-1-7-7,7-7Z"/><circle class="cls-1" cx="28" cy="28" r="27"/></g></g></svg>