<svg xmlns="http://www.w3.org/2000/svg" viewBox="0 0 183.76 29.4"><defs><style>.cls-1{fill:#fff;}.cls-2{fill:#f4a109;}</style></defs><title>Asset 1</title><g id="Layer_2" data-name="Layer 2"><g id="Layer_1-2" data-name="Layer 1"><path class="cls-1" d="M12.44,29,6.6,8.44H6.42q.42,5.25.42,8.16V29H0V.45H10.27l6,20.27h.16L22.23.45H32.52V29H25.43V16.48q0-1,0-2.16c0-.8.11-2.74.26-5.84h-.17L19.79,29Z"/><rect class="cls-1" x="40.67" y="0.45" width="7.75" height="28.55"/><path class="cls-1" d="M75.27,20.33a8.42,8.42,0,0,1-1.35,4.72A8.84,8.84,0,0,1,70,28.25a14.47,14.47,0,0,1-6,1.15A23.86,23.86,0,0,1,59.29,29a17.5,17.5,0,0,1-4-1.39V20.72a22.45,22.45,0,0,0,4.59,1.77,17.29,17.29,0,0,0,4.37.64,4.21,4.21,0,0,0,2.52-.6,1.82,1.82,0,0,0,.8-1.53,1.66,1.66,0,0,0-.32-1,3.79,3.79,0,0,0-1-.89c-.48-.3-1.74-.91-3.8-1.83a18.55,18.55,0,0,1-4.19-2.46,7.63,7.63,0,0,1-2.07-2.74,9,9,0,0,1-.68-3.65,7.31,7.31,0,0,1,2.88-6.15Q61.21,0,66.23,0a22.09,22.09,0,0,1,9,2.05l-2.36,6A17.07,17.07,0,0,0,66,6.21a3.64,3.64,0,0,0-2.19.53,1.61,1.61,0,0,0-.68,1.31A1.88,1.88,0,0,0,64,9.55,33.15,33.15,0,0,0,68.71,12a13,13,0,0,1,5.12,3.57,7.72,7.72,0,0,1,1.44,4.79"/><path class="cls-1" d="M100.36,20.33A8.42,8.42,0,0,1,99,25.05a8.87,8.87,0,0,1-3.89,3.2,14.43,14.43,0,0,1-6,1.15A23.75,23.75,0,0,1,84.38,29a17.5,17.5,0,0,1-4-1.39V20.72A22.45,22.45,0,0,0,85,22.49a17.17,17.17,0,0,0,4.37.64,4.21,4.21,0,0,0,2.52-.6,1.84,1.84,0,0,0,.8-1.53,1.73,1.73,0,0,0-.32-1,3.85,3.85,0,0,0-1-.89,41.06,41.06,0,0,0-3.8-1.83,18.78,18.78,0,0,1-4.19-2.46,7.63,7.63,0,0,1-2.07-2.74,9.22,9.22,0,0,1-.67-3.65,7.32,7.32,0,0,1,2.87-6.15Q86.3,0,91.31,0a22.14,22.14,0,0,1,9,2.05L98,8.05a17,17,0,0,0-6.91-1.84,3.64,3.64,0,0,0-2.19.53,1.58,1.58,0,0,0-.68,1.31,1.88,1.88,0,0,0,.87,1.5A33.41,33.41,0,0,0,93.79,12a13.12,13.12,0,0,1,5.13,3.57,7.72,7.72,0,0,1,1.44,4.79"/><rect class="cls-1" x="106.77" y="0.45" width="7.75" height="28.55"/><path class="cls-2" d="M149.41,14.69q0,7.2-3.53,11T135.53,29.4q-6.72,0-10.31-3.77t-3.58-11q0-7.12,3.56-10.89T135.57,0q6.81,0,10.33,3.73t3.51,11m-19.64,0q0,8.28,5.76,8.28a4.94,4.94,0,0,0,4.34-2q1.42-2,1.42-6.27t-1.44-6.32a4.88,4.88,0,0,0-4.28-2q-5.81,0-5.8,8.36"/><path class="cls-1" d="M183.76,29H173.64L163.21,8.89H163c.25,3.16.38,5.58.38,7.24V29h-6.84V.45h10.08L177,20.29h.12q-.28-4.3-.28-6.93V.45h6.88Z"/></g></g></svg>