<svg xmlns="http://www.w3.org/2000/svg" viewBox="0 0 328.59 58.99"><defs><style>.cls-1{fill:#fff;}.cls-2{fill:none;stroke:#000;stroke-miterlimit:10;}</style></defs><title>Asset 14</title><g id="Layer_2" data-name="Layer 2"><g id="Layer_1-2" data-name="Layer 1"><path class="cls-1" d="M318.09,58.49H10.5a10,10,0,0,1-10-10v-38a10,10,0,0,1,10-10H318.09a10,10,0,0,1,10,10v38a10,10,0,0,1-10,10"/><rect class="cls-2" x="0.5" y="0.5" width="327.59" height="57.99" rx="10"/><path d="M40.86,12h2.47V10.59h.73V12h2.57v.64H44.06V14.3a7.08,7.08,0,0,1,.9-.05,4,4,0,0,1,2.4.66,1.94,1.94,0,0,1,.9,1.58,2.35,2.35,0,0,1-.71,1.8,3.48,3.48,0,0,1-2.11.8l-.15-.67c1.48-.16,2.22-.79,2.22-1.9a1.33,1.33,0,0,0-.69-1.1A3.28,3.28,0,0,0,45,15c-.28,0-.59,0-.9.05v2.55a1.46,1.46,0,0,1-.31,1.06,1.43,1.43,0,0,1-1,.31,2.24,2.24,0,0,1-1.53-.59A1.77,1.77,0,0,1,40.5,17a2.13,2.13,0,0,1,.74-1.56,4.17,4.17,0,0,1,2.09-1V12.59H40.86Zm2.47,3.17a3.25,3.25,0,0,0-1.55.73,1.45,1.45,0,0,0-.55,1.1,1.24,1.24,0,0,0,.44.91,1.4,1.4,0,0,0,1,.41.73.73,0,0,0,.54-.17.78.78,0,0,0,.16-.56ZM47,12l.52-.42a15,15,0,0,1,1.63,2.1l-.55.36A13.93,13.93,0,0,0,47,12"/><path d="M60,12h3.9v2.2h-.77V12.57H60V14.7h-.74V12.57H56.13V14.2h-.77V12h3.9v-.56H55.71v-.65h7.84v.65H60Zm-.75,6.05H56.7v.64H56V15h7.46V17.2l.77.07c0,.37,0,.65-.05.84a2.64,2.64,0,0,1-.11.56,1.22,1.22,0,0,1-.15.38.72.72,0,0,1-.28.2,1.15,1.15,0,0,1-.4.12l-.59,0c-.39,0-.82,0-1.29,0s-.78,0-1.15,0-.66-.11-.76-.25a2,2,0,0,1-.15-1ZM56.65,13h2.1v.52h-2.1Zm0,1h2.1v.52h-2.1Zm2.6,1.57H56.7v.69h2.55Zm0,1.22H56.7v.73h2.55Zm.76-.53h2.65v-.69H60Zm0,1.26h2.65v-.73H60Zm0,.55a1.6,1.6,0,0,0,.06.6c0,.07.18.11.4.12l1,0,1.09,0a1.35,1.35,0,0,0,.65-.13.87.87,0,0,0,.18-.59Zm.5-5.05h2.1v.52h-2.1Zm0,1h2.1v.52h-2.1Z"/><path d="M70.2,12.27h3.7v.67H70.2Zm.28-1.4h3.17v.65H70.48Zm.73,8.23v.44h-.73v-3h3.18V19.1Zm-.66-5.38h3.06v.63H70.55Zm0,1.41h3.06v.64H70.55Zm.66,3.34H73V17.19H71.21Zm7.52-7.8.15.66a15.93,15.93,0,0,1-1.93.46v1.55h2.18V14H77v1.37h1.88v4h-.77v-.53H75v.53H74.3v-4h1.88V14H74v-.66h2.22V11.91a19.62,19.62,0,0,1-2,.19l0-.66a20.17,20.17,0,0,0,4.57-.77M78.06,16H75v2.26h3Z"/><path d="M87.08,11a15.56,15.56,0,0,0-.48,4,15.56,15.56,0,0,0,.48,4l-.75.1a16.17,16.17,0,0,1-.5-4.08,16.17,16.17,0,0,1,.5-4.08Zm6.37,6.62.11.67a9.12,9.12,0,0,1-2.3.31,4,4,0,0,1-2.16-.51,1.52,1.52,0,0,1-.8-1.34,2,2,0,0,1,.35-1,4.27,4.27,0,0,1,.93-1l.54.46a3.69,3.69,0,0,0-.77.83,1.46,1.46,0,0,0-.29.74.92.92,0,0,0,.57.85,3.59,3.59,0,0,0,1.63.3,9.13,9.13,0,0,0,2.19-.28m-4.39-5.82h4.25v.68H89.06Z"/><path d="M108.4,13.15h-3.27v2.79A15.51,15.51,0,0,1,108.5,18l-.46.58a16.54,16.54,0,0,0-2.91-1.91v.23a2.44,2.44,0,0,1-.48,1.66,1.91,1.91,0,0,1-1.49.54,2.56,2.56,0,0,1-1.8-.53,1.76,1.76,0,0,1-.56-1.34,1.52,1.52,0,0,1,.6-1.29,3,3,0,0,1,1.76-.44,4.61,4.61,0,0,1,1.2.16v-5h.77v1.8h3.27Zm-4,3.24a4,4,0,0,0-1.2-.19c-1.07,0-1.6.35-1.6,1.05s.53,1.2,1.6,1.2a1.09,1.09,0,0,0,.92-.36,1.86,1.86,0,0,0,.28-1.17Z"/><path d="M120.87,18.27a1.94,1.94,0,0,0,1.71-2A1.43,1.43,0,0,0,122,15a3.1,3.1,0,0,0-1.78-.41A8.61,8.61,0,0,0,116,15.84l-.29-.54,5.4-3.41v0h-4.68v-.65h6l0,.66-3.92,2.37h0a7.22,7.22,0,0,1,1.87-.27c2,0,2.94.73,2.94,2.18a2.51,2.51,0,0,1-1,2.13,4.64,4.64,0,0,1-2.84.75c-1.89,0-2.83-.53-2.83-1.6a1.19,1.19,0,0,1,.57-1,2.78,2.78,0,0,1,1.63-.41q2.1,0,2.1,1.44a2.07,2.07,0,0,1-.18.78m-.76.11a1.77,1.77,0,0,0,.25-.83c0-.57-.48-.86-1.45-.86a2,2,0,0,0-1,.22.63.63,0,0,0-.37.54.77.77,0,0,0,.52.69,3.61,3.61,0,0,0,1.55.26l.53,0"/><path d="M130.86,12h2.47V10.59h.73V12h2.57v.64h-2.57V14.3a7.08,7.08,0,0,1,.9-.05,4,4,0,0,1,2.4.66,1.94,1.94,0,0,1,.9,1.58,2.35,2.35,0,0,1-.71,1.8,3.48,3.48,0,0,1-2.11.8l-.15-.67c1.48-.16,2.22-.79,2.22-1.9a1.33,1.33,0,0,0-.69-1.1A3.28,3.28,0,0,0,135,15c-.28,0-.59,0-.9.05v2.55a1.46,1.46,0,0,1-.31,1.06,1.43,1.43,0,0,1-1.05.31,2.24,2.24,0,0,1-1.53-.59A1.77,1.77,0,0,1,130.5,17a2.13,2.13,0,0,1,.74-1.56,4.17,4.17,0,0,1,2.09-1V12.59h-2.47Zm2.47,3.17a3.25,3.25,0,0,0-1.55.73,1.45,1.45,0,0,0-.55,1.1,1.24,1.24,0,0,0,.44.91,1.4,1.4,0,0,0,1,.41.73.73,0,0,0,.54-.17.78.78,0,0,0,.16-.56ZM137,12l.52-.42a15,15,0,0,1,1.63,2.1l-.55.36a13.93,13.93,0,0,0-1.6-2"/><path d="M145.38,19.39v-8.6h3.87V14.4h-3.1v5Zm.77-7.06h2.35v-.91h-2.35Zm0,1.5h2.35v-.95h-2.35Zm2.13,4.37v.54h-.75V15.19h4.2v3Zm2.7-2.4h-2.7v1.79H151Zm-1.07-1.4V10.79h4v7.26a1.77,1.77,0,0,1-.2,1.06,1.66,1.66,0,0,1-1.05.21l-1.37-.05,0-.67,1.28,0a1,1,0,0,0,.52-.08.91.91,0,0,0,.08-.5V14.4Zm3.2-3h-2.45v.91h2.45Zm0,1.46h-2.45v.95h2.45Z"/><path d="M162,11.8a12.22,12.22,0,0,0-.43,3.32A4.75,4.75,0,0,0,162,17.3c.31.59.62.89.93.89s.49-.22.83-.65a7.31,7.31,0,0,0,.95-1.83l.7.27a6.55,6.55,0,0,1-1.2,2.18,2,2,0,0,1-1.33.79c-.52,0-1-.37-1.44-1.12a5.26,5.26,0,0,1-.66-2.71,12.1,12.1,0,0,1,.45-3.42Zm4.65.09.7-.24a11,11,0,0,1,1,2.89,15.7,15.7,0,0,1,.36,3.38H168a15.21,15.21,0,0,0-.34-3.23,11.23,11.23,0,0,0-1-2.8"/><path d="M175.13,13.43a18.45,18.45,0,0,0,4-2.91h1a18.45,18.45,0,0,0,4,2.91l-.34.65a18.32,18.32,0,0,1-4.16-3,18.32,18.32,0,0,1-4.16,3Zm7.9,1.81v4.21h-.78v-.53H177v.53h-.78V15.24Zm-6.1-1.85h5.4V14h-5.4Zm.08,4.9h5.24v-2.4H177Z"/><path d="M190.43,12.39h2.13V10.75h.7v2.74a7.38,7.38,0,0,1,1.67-1.25,3.18,3.18,0,0,1,1.4-.35,2.14,2.14,0,0,1,1.86.86,4.55,4.55,0,0,1,.61,2.64,3.65,3.65,0,0,1-.75,2.44,2.51,2.51,0,0,1-2,.89,3.48,3.48,0,0,1-1.54-.36l.23-.65A3.34,3.34,0,0,0,196,18a1.8,1.8,0,0,0,1.48-.69,3,3,0,0,0,.54-1.92,4.16,4.16,0,0,0-.42-2.13,1.48,1.48,0,0,0-1.33-.66A2.65,2.65,0,0,0,195,13a8.75,8.75,0,0,0-1.74,1.47v4.71h-.7v-4c-.49.55-1.08,1.26-1.78,2.13l-.52-.46c.86-1.09,1.63-2,2.3-2.71V13h-2.13Z"/><path d="M207,10.89h.74v1.9c.85,0,2.16,0,3.91-.1V10.62h.72v2.05l.79,0,.76,0,0,.67-.78,0-.8,0V15a2,2,0,0,1-.18,1,.9.9,0,0,1-.75.26,5.52,5.52,0,0,1-1-.15,6.29,6.29,0,0,1-1.09-.29l.19-.67a8.81,8.81,0,0,0,1,.26,4.26,4.26,0,0,0,.82.13c.17,0,.28,0,.3-.1a1.81,1.81,0,0,0,.05-.62V13.36l-3.91.09v3.17a3.67,3.67,0,0,0,.06.74,1.26,1.26,0,0,0,.19.49.8.8,0,0,0,.42.31,3,3,0,0,0,.69.14,9.75,9.75,0,0,0,1,0,18.5,18.5,0,0,0,2.77-.2l.07.68a18.3,18.3,0,0,1-2.84.2c-.45,0-.82,0-1.13,0a4.46,4.46,0,0,1-.82-.15,1.8,1.8,0,0,1-.59-.28,1.2,1.2,0,0,1-.35-.44,1.86,1.86,0,0,1-.2-.63,6.75,6.75,0,0,1,0-.86V13.46h-1.61V12.8H207Z"/><path d="M221.82,11a15.45,15.45,0,0,0-.49,4,15.45,15.45,0,0,0,.49,4l-.72.1a16.17,16.17,0,0,1-.5-4.08,16.17,16.17,0,0,1,.5-4.08Zm7.09,2.08h-1.77v3.27a13,13,0,0,1,1.78,1.55l-.51.5a15.46,15.46,0,0,0-1.27-1.18,1.72,1.72,0,0,1-2,1.83,2.41,2.41,0,0,1-1.59-.47,1.58,1.58,0,0,1-.57-1.3,1.45,1.45,0,0,1,.56-1.21,2.63,2.63,0,0,1,1.6-.42,3,3,0,0,1,1.24.27V13.12h-3.14v-.67h3.14V10.79h.73v1.66h1.77Zm-2.5,3.62a2.5,2.5,0,0,0-1.27-.37c-.93,0-1.4.32-1.4.95s.47,1.1,1.4,1.1a1.29,1.29,0,0,0,1-.32,1.43,1.43,0,0,0,.3-1Z"/><path d="M235.86,12h2.47V10.59h.73V12h2.57v.64h-2.57V14.3a7,7,0,0,1,.9-.05,4,4,0,0,1,2.4.66,1.94,1.94,0,0,1,.9,1.58,2.35,2.35,0,0,1-.71,1.8,3.48,3.48,0,0,1-2.11.8l-.15-.67c1.48-.16,2.22-.79,2.22-1.9a1.33,1.33,0,0,0-.69-1.1A3.28,3.28,0,0,0,240,15c-.29,0-.59,0-.9.05v2.55a1.46,1.46,0,0,1-.31,1.06,1.45,1.45,0,0,1-1.05.31,2.24,2.24,0,0,1-1.53-.59A1.77,1.77,0,0,1,235.5,17a2.13,2.13,0,0,1,.74-1.56,4.12,4.12,0,0,1,2.09-1V12.59h-2.47Zm2.47,3.17a3.25,3.25,0,0,0-1.55.73,1.45,1.45,0,0,0-.55,1.1,1.24,1.24,0,0,0,.44.91,1.39,1.39,0,0,0,1,.41.74.74,0,0,0,.54-.17.78.78,0,0,0,.16-.56ZM242,12l.52-.42a15,15,0,0,1,1.63,2.1l-.55.36a13.93,13.93,0,0,0-1.6-2"/><path d="M250.08,13.71A9.85,9.85,0,0,0,252,10.23l.73.16c-.11.33-.19.58-.26.75h6v.65h-6.31a10,10,0,0,1-1.51,2.32Zm1.17,2.17.38-.55a17.22,17.22,0,0,1,2.17,1.39,12.67,12.67,0,0,0,1.56-1.54l.55.43a12.44,12.44,0,0,1-1.54,1.54c.53.42,1.16,1,1.87,1.61l-.47.49c-.67-.61-1.32-1.17-2-1.66a13.21,13.21,0,0,1-3.2,1.82l-.32-.58a13.3,13.3,0,0,0,2.95-1.67,18.31,18.31,0,0,0-2-1.28m7.4.17.68.11a17.12,17.12,0,0,1-.22,2.14,2.1,2.1,0,0,1-.32.92.71.71,0,0,1-.53.2c-.42,0-.8-.41-1.15-1.23a9,9,0,0,1-.58-3.27h-5.38v-.63h6.16v.23a10.78,10.78,0,0,0,.19,2.12,6.07,6.07,0,0,0,.4,1.44c.14.31.26.47.36.47s.27-.83.39-2.5M252,12.69h5.87v.63H252Z"/><path d="M266,16.74h-.67V12.9h1.62v-.83h-1.87v-.63h1.87v-.95h.77v.95h1.73v.63H267.7v.83h1.55v3.84H267.7v.86h1.76v.64H267.7v1.31h-.77V18.24h-1.87V17.6h1.87v-.86Zm0-2.24h.95v-1H266Zm0,1.64h.95V15.07H266Zm1.72-1.64h.91v-1h-.91Zm0,1.64h.91V15.07h-.91Zm4.56,2.38h2v.67h-5.1v-.67h2.32v-1.8h-1.84v-.63h1.84V14.92h.76v1.17h1.84v.63h-1.84ZM270,12l.61-.36A7.58,7.58,0,0,0,272,13.3a5.54,5.54,0,0,0,1.23-1.75H269.7v-.66H274v.66a6.4,6.4,0,0,1-1.45,2.18,8.65,8.65,0,0,0,1.82,1.08l-.31.6A9.08,9.08,0,0,1,272,14.2a9.05,9.05,0,0,1-2.26,1.22l-.24-.63a8.32,8.32,0,0,0,2-1A8.23,8.23,0,0,1,270,12"/><path d="M282.08,11a15.56,15.56,0,0,0-.48,4,15.56,15.56,0,0,0,.48,4l-.75.1a16.17,16.17,0,0,1-.5-4.08,16.17,16.17,0,0,1,.5-4.08Zm6.37,6.62.11.67a9.12,9.12,0,0,1-2.3.31,4,4,0,0,1-2.16-.51,1.52,1.52,0,0,1-.8-1.34,2,2,0,0,1,.35-1,4.27,4.27,0,0,1,.93-1l.54.46a3.69,3.69,0,0,0-.77.83,1.46,1.46,0,0,0-.29.74.92.92,0,0,0,.57.85,3.56,3.56,0,0,0,1.63.3,9.13,9.13,0,0,0,2.19-.28m-4.39-5.82h4.25v.68h-4.25Z"/><path d="M77.14,30.77A9.86,9.86,0,0,1,78.66,27a5.27,5.27,0,0,1,2.58-2,12.72,12.72,0,0,1,7.4,0,5.31,5.31,0,0,1,2.58,2,10,10,0,0,1,1.52,3.82,31,31,0,0,1,.5,6.09,30.93,30.93,0,0,1-.5,6.11,9.86,9.86,0,0,1-1.52,3.79,5.08,5.08,0,0,1-2.58,1.91,13.42,13.42,0,0,1-7.4,0,5,5,0,0,1-2.58-1.91A9.71,9.71,0,0,1,77.14,43a30.93,30.93,0,0,1-.5-6.11,31,31,0,0,1,.5-6.09m6.35,13.61a1.6,1.6,0,0,0,2.9,0,9.22,9.22,0,0,0,.44-3.49V32.83a9.26,9.26,0,0,0-.44-3.49,1.61,1.61,0,0,0-2.9,0,9.26,9.26,0,0,0-.44,3.49v8.06a9.22,9.22,0,0,0,.44,3.49"/><path d="M101.91,32.21H97.3v-4A14.58,14.58,0,0,0,99.85,28a5.65,5.65,0,0,0,1.82-.62,3.56,3.56,0,0,0,1.24-1.17,6.58,6.58,0,0,0,.79-1.81h4.62V48.81h-6.41Z"/><path d="M116.44,29.3a6.12,6.12,0,0,1,1.17-2.61A5.38,5.38,0,0,1,120,25a11.7,11.7,0,0,1,4.06-.59A12.25,12.25,0,0,1,128,25a5.78,5.78,0,0,1,2.39,1.43,4.8,4.8,0,0,1,1.21,2.12,10.13,10.13,0,0,1,.32,2.58,9.4,9.4,0,0,1-.82,4.16,11.35,11.35,0,0,1-2.21,3.07L125.12,42l-.92.93a2.77,2.77,0,0,0-.67,1.07h8.4v4.82h-16a15.24,15.24,0,0,1,.77-4.87,12,12,0,0,1,2.88-4.46l4.27-4.34a6.43,6.43,0,0,0,1.32-1.77,5.22,5.22,0,0,0,.4-2.22,3.67,3.67,0,0,0-.45-2.14,1.43,1.43,0,0,0-1.2-.58,1.84,1.84,0,0,0-.66.12,1.4,1.4,0,0,0-.57.46,2.72,2.72,0,0,0-.41,1,7.56,7.56,0,0,0-.15,1.67v1h-6a18.54,18.54,0,0,1,.34-3.4"/><path d="M136,30.77A9.86,9.86,0,0,1,137.53,27a5.27,5.27,0,0,1,2.58-2,12.72,12.72,0,0,1,7.4,0,5.27,5.27,0,0,1,2.58,2,9.86,9.86,0,0,1,1.52,3.82,31,31,0,0,1,.5,6.09,30.93,30.93,0,0,1-.5,6.11,9.71,9.71,0,0,1-1.52,3.79,5,5,0,0,1-2.58,1.91,13.42,13.42,0,0,1-7.4,0,5,5,0,0,1-2.58-1.91A9.71,9.71,0,0,1,136,43a30.93,30.93,0,0,1-.5-6.11,31,31,0,0,1,.5-6.09m6.35,13.61a1.6,1.6,0,0,0,2.9,0,9.22,9.22,0,0,0,.44-3.49V32.83a9.26,9.26,0,0,0-.44-3.49,1.61,1.61,0,0,0-2.9,0,9.26,9.26,0,0,0-.44,3.49v8.06a9.22,9.22,0,0,0,.44,3.49"/><rect x="155.45" y="36.24" width="10.74" height="5.23"/><path d="M176.48,44.81a1.52,1.52,0,0,0,1.28.49,1.63,1.63,0,0,0,1.22-.57,2.45,2.45,0,0,0,.53-1.71V39.13h-.07a2.91,2.91,0,0,1-1.53,1.38,5.94,5.94,0,0,1-2.56.52,7.39,7.39,0,0,1-2.38-.36,4.52,4.52,0,0,1-1.84-1.21,5.61,5.61,0,0,1-1.19-2.27,13.24,13.24,0,0,1-.41-3.56,14.71,14.71,0,0,1,.53-4.22,7.27,7.27,0,0,1,1.59-2.86,6.07,6.07,0,0,1,2.56-1.62,11.19,11.19,0,0,1,3.48-.5,12.31,12.31,0,0,1,3.68.5A5.7,5.7,0,0,1,184,26.64a7.93,7.93,0,0,1,1.58,3.2,19.94,19.94,0,0,1,.53,5v2.69a38.85,38.85,0,0,1-.29,5,9.5,9.5,0,0,1-1.19,3.69,5.5,5.5,0,0,1-2.54,2.24,10.93,10.93,0,0,1-4.38.74,12.62,12.62,0,0,1-3.87-.49,5.51,5.51,0,0,1-2.34-1.34,4.66,4.66,0,0,1-1.17-2A8.26,8.26,0,0,1,170,43h6a2.93,2.93,0,0,0,.48,1.79m-.15-9.22a1.55,1.55,0,0,0,2.73,0,7.48,7.48,0,0,0,.45-3.17,8.53,8.53,0,0,0-.39-3.17,1.42,1.42,0,0,0-1.4-.82,1.44,1.44,0,0,0-1.34.82,7.48,7.48,0,0,0-.45,3.17,8.27,8.27,0,0,0,.4,3.17"/><path d="M194.8,32.21h-4.62v-4a14.43,14.43,0,0,0,2.55-.19,5.79,5.79,0,0,0,1.83-.62,3.74,3.74,0,0,0,1.24-1.17,6.9,6.9,0,0,0,.79-1.81h4.61V48.81h-6.4Z"/><path d="M223.68,24.91v4.82h-9.26l-.27,4.1a6.9,6.9,0,0,1,2-1.31,6.3,6.3,0,0,1,2.5-.48,5.53,5.53,0,0,1,4.54,1.89q1.55,1.91,1.55,5.86a19,19,0,0,1-.4,4.18A7.11,7.11,0,0,1,223,46.91a5.43,5.43,0,0,1-2.46,1.73,11.58,11.58,0,0,1-3.81.55q-4.23,0-6.11-1.79a6.74,6.74,0,0,1-1.87-5.1v-.79h6v.82a4.21,4.21,0,0,0,.46,2.35,1.53,1.53,0,0,0,1.29.62,2,2,0,0,0,.81-.16,1.31,1.31,0,0,0,.57-.7,5.61,5.61,0,0,0,.34-1.59c.07-.69.11-1.62.11-2.79a6.24,6.24,0,0,0-.47-2.87,1.48,1.48,0,0,0-1.36-.81,1.71,1.71,0,0,0-1.27.48,2.18,2.18,0,0,0-.48,1.58H209l.55-13.53Z"/><rect x="228.71" y="36.24" width="10.74" height="5.23"/><path d="M243.29,30.77A10,10,0,0,1,244.8,27a5.33,5.33,0,0,1,2.59-2,12.72,12.72,0,0,1,7.4,0,5.36,5.36,0,0,1,2.58,2,10,10,0,0,1,1.52,3.82,31,31,0,0,1,.5,6.09,30.93,30.93,0,0,1-.5,6.11,9.86,9.86,0,0,1-1.52,3.79,5.12,5.12,0,0,1-2.58,1.91,13.42,13.42,0,0,1-7.4,0,5.1,5.1,0,0,1-2.59-1.91A9.87,9.87,0,0,1,243.29,43a30.93,30.93,0,0,1-.5-6.11,31,31,0,0,1,.5-6.09m6.35,13.61a1.59,1.59,0,0,0,2.89,0,9,9,0,0,0,.45-3.49V32.83a9,9,0,0,0-.45-3.49,1.6,1.6,0,0,0-2.89,0,9,9,0,0,0-.45,3.49v8.06a9,9,0,0,0,.45,3.49"/><path d="M262.91,30.77A9.86,9.86,0,0,1,264.43,27,5.31,5.31,0,0,1,267,25a12.72,12.72,0,0,1,7.4,0A5.27,5.27,0,0,1,277,27a9.86,9.86,0,0,1,1.52,3.82,31,31,0,0,1,.5,6.09,30.93,30.93,0,0,1-.5,6.11A9.71,9.71,0,0,1,277,46.76a5,5,0,0,1-2.58,1.91,13.42,13.42,0,0,1-7.4,0,5.08,5.08,0,0,1-2.58-1.91A9.71,9.71,0,0,1,262.91,43a30.93,30.93,0,0,1-.5-6.11,31,31,0,0,1,.5-6.09m6.36,13.61a1.49,1.49,0,0,0,1.44.92,1.51,1.51,0,0,0,1.45-.92,9.22,9.22,0,0,0,.44-3.49V32.83a9.26,9.26,0,0,0-.44-3.49,1.5,1.5,0,0,0-1.45-.91,1.48,1.48,0,0,0-1.44.91,9,9,0,0,0-.45,3.49v8.06a9,9,0,0,0,.45,3.49"/><path d="M287.68,32.21h-4.61v-4a14.43,14.43,0,0,0,2.55-.19,5.65,5.65,0,0,0,1.82-.62,3.56,3.56,0,0,0,1.24-1.17,6.58,6.58,0,0,0,.79-1.81h4.62V48.81h-6.41Z"/><path d="M31.82,24.35v3.53a20.3,20.3,0,0,1,7.42,1.38c.41.17.81.34,1.19.52a18,18,0,0,1,2.81-1.07,20.87,20.87,0,0,1,13.29.55c.41.17.81.34,1.19.52a18,18,0,0,1,2.81-1.07,20.37,20.37,0,0,1,5.8-.83V24.35Z"/><path d="M53.43,37.74a4.25,4.25,0,0,0,.73,2.39,4.3,4.3,0,0,0,1.89,1.56,4.19,4.19,0,0,0,1.67.34,4.23,4.23,0,0,0,2.4-.74,4.28,4.28,0,0,0,1.55-1.89A4.18,4.18,0,0,0,62,37.74a3.77,3.77,0,0,0-.27-1.35,6,6,0,0,0-.86-1.46,10.74,10.74,0,0,0-3.16-2.63,11.39,11.39,0,0,0-2.6,2,6.45,6.45,0,0,0-1.47,2.26,3.56,3.56,0,0,0-.22,1.2"/><path d="M61.92,32.74a8.65,8.65,0,0,1,2,3.06,5.87,5.87,0,0,1,.34,1.94,6.44,6.44,0,0,1-1.11,3.64,6.48,6.48,0,0,1-5.4,2.87,6.47,6.47,0,0,1-3.64-1.11,6.56,6.56,0,0,1-2.88-5.4A6.19,6.19,0,0,1,52,34.88a9.52,9.52,0,0,1,2-2.54,13.54,13.54,0,0,1,1.41-1.15c-.34-.13-.69-.24-1-.35a18.37,18.37,0,0,0-5.21-.74,18.11,18.11,0,0,0-6.25,1.09,13.15,13.15,0,0,1,1.81,1.55,8.65,8.65,0,0,1,2,3.06,5.87,5.87,0,0,1,.34,1.94,6.52,6.52,0,0,1-13,0,6.19,6.19,0,0,1,.75-2.86,9.52,9.52,0,0,1,2-2.54A13.54,13.54,0,0,1,38,31.19c-.34-.13-.69-.24-1-.35a18.5,18.5,0,0,0-5.17-.74V47H66.33V30.1a17.94,17.94,0,0,0-6.22,1.09,13.15,13.15,0,0,1,1.81,1.55"/><path d="M36.14,37.74a4.25,4.25,0,0,0,.73,2.39,4.3,4.3,0,0,0,1.89,1.56,4.19,4.19,0,0,0,1.67.34,4.23,4.23,0,0,0,2.4-.74,4.28,4.28,0,0,0,1.55-1.89,4.18,4.18,0,0,0,.34-1.66,3.59,3.59,0,0,0-.28-1.35,5.69,5.69,0,0,0-.85-1.46,10.74,10.74,0,0,0-3.16-2.63,11.39,11.39,0,0,0-2.6,2,6.45,6.45,0,0,0-1.47,2.26,3.56,3.56,0,0,0-.22,1.2"/></g></g></svg>