<svg xmlns="http://www.w3.org/2000/svg" viewBox="0 0 870.08 276.16"><defs><style>.cls-1,.cls-6,.cls-7{fill:none;}.cls-1,.cls-2,.cls-3,.cls-7{stroke:#000;}.cls-1{stroke-linecap:round;stroke-linejoin:round;}.cls-2,.cls-3{fill:#fff;}.cls-2,.cls-7{stroke-width:2px;}.cls-4{font-size:16px;font-family:mplus-1c-medium, "M+ 1c";font-weight:500;letter-spacing:0.1em;}.cls-5{font-size:40px;fill:#f4a109;font-family:mplus-1c-heavy, "M+ 1c";font-weight:800;letter-spacing:0.2em;}.cls-6{stroke:#fff;stroke-width:4px;}.cls-6,.cls-7{stroke-miterlimit:10;}</style></defs><g id="Layer_2" data-name="Layer 2"><g id="design"><line class="cls-1" x1="435.72" y1="0.5" x2="435.72" y2="40.5"/><polyline class="cls-1" points="91.22 77.34 91.22 40.5 780.22 40.5 780.22 76.19"/><polygon points="87.58 76.86 94.87 76.86 91.22 80.5 87.58 76.86"/><polygon points="777.23 75.32 780.22 80.5 783.21 75.32 777.23 75.32"/><line class="cls-1" x1="321.39" y1="40.5" x2="321.39" y2="77.35"/><polygon points="325.03 76.86 317.74 76.86 321.39 80.5 325.03 76.86"/><line class="cls-1" x1="551.22" y1="40.5" x2="551.22" y2="77.35"/><polygon points="554.87 76.86 547.58 76.86 551.22 80.5 554.87 76.86"/></g><g id="svg"><circle class="cls-2" cx="89.86" cy="186.3" r="88.86"/><rect class="cls-3" x="82.36" y="130.25" width="15" height="15"/><text class="cls-4" transform="translate(33.35 182.74)">修繕費の手出し</text><text class="cls-5" transform="translate(41.86 233.58)">不要</text><polyline class="cls-6" points="85.86 134.75 89.86 141.75 105.86 128.75"/><polyline class="cls-7" points="85.86 134.75 89.86 141.75 105.86 128.75"/><circle class="cls-2" cx="321.39" cy="186.3" r="88.86"/><rect class="cls-3" x="313.89" y="130.25" width="15" height="15"/><text class="cls-4" transform="translate(264.88 182.74)">修繕費の手出し</text><text class="cls-5" transform="translate(273.39 233.58)">不要</text><polyline class="cls-6" points="317.39 134.75 321.39 141.75 337.39 128.75"/><polyline class="cls-7" points="317.39 134.75 321.39 141.75 337.39 128.75"/><circle class="cls-2" cx="551.22" cy="186.3" r="88.86"/><rect class="cls-3" x="543.72" y="130.25" width="15" height="15"/><text class="cls-4" transform="translate(494.71 182.74)">修繕費の手出し</text><text class="cls-5" transform="translate(503.22 233.58)">不要</text><polyline class="cls-6" points="547.22 134.75 551.22 141.75 567.22 128.75"/><polyline class="cls-7" points="547.22 134.75 551.22 141.75 567.22 128.75"/><circle class="cls-2" cx="780.22" cy="186.3" r="88.86"/><rect class="cls-3" x="772.72" y="130.25" width="15" height="15"/><text class="cls-4" transform="translate(723.71 182.74)">修繕費の手出し</text><text class="cls-5" transform="translate(732.22 233.58)">不要</text><polyline class="cls-6" points="776.22 134.75 780.22 141.75 796.22 128.75"/><polyline class="cls-7" points="776.22 134.75 780.22 141.75 796.22 128.75"/></g></g></svg>