<svg xmlns="http://www.w3.org/2000/svg" viewBox="0 0 901.69 439.29"><defs><style>.cls-1{fill:#f0f2f6;}.cls-2{fill:#f4a109;}.cls-2,.cls-3,.cls-4,.cls-8{stroke:#fff;}.cls-3{fill:#bbb;}.cls-4{fill:#cbc5ae;}.cls-14,.cls-15,.cls-5,.cls-6,.cls-7,.cls-8{fill:none;}.cls-5{stroke:#fdfefe;}.cls-5,.cls-9{stroke-miterlimit:10;}.cls-15,.cls-5,.cls-9{stroke-width:2px;}.cls-6{stroke:#ccc;}.cls-6,.cls-7{stroke-linecap:round;stroke-linejoin:round;}.cls-7{stroke:#000;}.cls-10,.cls-9{fill:#fff;}.cls-9{stroke:#f4a109;}.cls-10,.cls-11,.cls-13{font-size:15px;}.cls-10,.cls-13{font-family:mplus-1c-medium, "mplus 1c-medium";font-weight:500;}.cls-10{letter-spacing:0.1em;}.cls-11,.cls-12,.cls-13{fill:#262a3c;}.cls-11,.cls-12{font-family:mplus-1c-regular, "mplus 1c-regular";}.cls-11,.cls-13{letter-spacing:0.05em;}.cls-12{font-size:7px;letter-spacing:0.05em;}.cls-14,.cls-15{stroke:#262a3c;}</style></defs><g id="Layer_2" data-name="Layer 2"><g id="design"><rect class="cls-1" x="3.49" y="44.33" width="429.08" height="394.46"/><rect class="cls-2" x="1" y="0.5" width="431.57" height="43.83"/><rect class="cls-3" x="432.57" y="0.5" width="233.9" height="43.83"/><rect class="cls-4" x="666.47" y="0.5" width="234.72" height="43.83"/><line class="cls-5" x1="1.56" y1="88.16" x2="430.56" y2="88.16"/><line class="cls-6" x1="432.57" y1="88.16" x2="664.06" y2="88.16"/><line class="cls-6" x1="901.19" y1="438.79" x2="432.57" y2="438.79"/><line class="cls-6" x1="666.47" y1="88.16" x2="900.06" y2="88.16"/><line class="cls-5" x1="1.56" y1="131.99" x2="430.56" y2="131.99"/><line class="cls-6" x1="432.57" y1="131.99" x2="664.06" y2="131.99"/><line class="cls-6" x1="666.47" y1="131.99" x2="900.06" y2="131.99"/><line class="cls-7" x1="1.56" y1="175.82" x2="430.56" y2="175.82"/><line class="cls-7" x1="442.56" y1="175.82" x2="664.06" y2="175.82"/><line class="cls-7" x1="678.56" y1="175.82" x2="900.06" y2="175.82"/><line class="cls-7" x1="1.56" y1="219.64" x2="430.56" y2="219.64"/><line class="cls-7" x1="442.56" y1="219.64" x2="664.06" y2="219.64"/><line class="cls-7" x1="678.56" y1="219.64" x2="900.06" y2="219.64"/><line class="cls-5" x1="1.56" y1="263.47" x2="430.56" y2="263.47"/><line class="cls-6" x1="432.57" y1="263.47" x2="664.06" y2="263.47"/><line class="cls-6" x1="666.47" y1="263.47" x2="900.06" y2="263.47"/><line class="cls-5" x1="1.56" y1="307.3" x2="430.56" y2="307.3"/><line class="cls-6" x1="432.57" y1="307.3" x2="664.06" y2="307.3"/><line class="cls-6" x1="666.47" y1="307.3" x2="900.06" y2="307.3"/><line class="cls-5" x1="1.56" y1="351.13" x2="430.56" y2="351.13"/><line class="cls-6" x1="432.57" y1="351.13" x2="664.06" y2="351.13"/><line class="cls-6" x1="666.47" y1="351.13" x2="900.06" y2="351.13"/><line class="cls-5" x1="1.56" y1="394.96" x2="430.56" y2="394.96"/><line class="cls-6" x1="432.57" y1="394.96" x2="664.06" y2="394.96"/><line class="cls-6" x1="666.47" y1="394.96" x2="900.06" y2="394.96"/><line class="cls-8" x1="432.57" y1="44.33" x2="432.57" y2="438.79"/><line class="cls-6" x1="666.26" y1="44.33" x2="666.26" y2="438.79"/><line class="cls-6" x1="900.33" y1="1.48" x2="900.33" y2="438.79"/><rect class="cls-9" x="1" y="175.82" width="899.06" height="43.83"/></g><g id="text"><text class="cls-10" transform="translate(175.54 27.5)">被災の種類</text><text class="cls-10" transform="translate(506.02 27.5)">住宅総合保険</text><text class="cls-10" transform="translate(739.12 27.5)">住宅火災保険</text><text class="cls-11" transform="translate(203.61 72.28)">火災</text><text class="cls-11" transform="translate(203.61 116.64)">落雷</text><text class="cls-11" transform="translate(124.86 161.01)">ガス爆発などの破裂・爆発</text><text class="cls-12" transform="translate(578.24 197.73)">※一部自己負担額が<tspan x="0" y="8.25">　ある場合もあり</tspan></text><text class="cls-12" transform="translate(811.48 197.73)">※一部自己負担額が<tspan x="0" y="8.25">　ある場合もあり</tspan></text><text class="cls-12" transform="translate(578.24 241.56)">※一部自己負担額が<tspan x="0" y="8.25">　ある場合もあり</tspan></text><text class="cls-13" transform="translate(140.61 203.12)">風災・ひょう災・雪災</text><text class="cls-13" transform="translate(140.61 203.12)">風災・ひょう災・雪災</text><text class="cls-11" transform="translate(203.61 248.23)">水災</text><text class="cls-11" transform="translate(61.86 291.85)">自動車の飛び込み等による飛来・落下・衝突</text><text class="cls-11" transform="translate(101.24 333.96)">給排水設備の事故等による水漏れ</text><text class="cls-11" transform="translate(116.99 379.08)">騒じょう等による暴行・破壊</text><text class="cls-11" transform="translate(203.61 421.94)">盗難</text><circle class="cls-14" cx="555.52" cy="66.24" r="7.5"/><circle class="cls-14" cx="555.52" cy="110.07" r="7.5"/><circle class="cls-14" cx="555.52" cy="153.9" r="7.5"/><circle class="cls-15" cx="555.52" cy="197.73" r="7.5"/><circle class="cls-14" cx="788.62" cy="66.24" r="7.5"/><circle class="cls-14" cx="788.62" cy="110.07" r="7.5"/><circle class="cls-14" cx="788.62" cy="153.9" r="7.5"/><circle class="cls-15" cx="788.62" cy="197.73" r="7.5"/><circle class="cls-14" cx="555.52" cy="241.56" r="7.5"/><circle class="cls-14" cx="555.52" cy="285.39" r="7.5"/><circle class="cls-14" cx="555.52" cy="329.22" r="7.5"/><circle class="cls-14" cx="555.52" cy="373.05" r="7.5"/><line class="cls-14" x1="783.28" y1="237.55" x2="793.96" y2="248.23"/><line class="cls-14" x1="793.96" y1="237.55" x2="783.28" y2="248.23"/><line class="cls-14" x1="783.28" y1="280.04" x2="793.96" y2="290.73"/><line class="cls-14" x1="793.96" y1="280.04" x2="783.28" y2="290.73"/><line class="cls-14" x1="783.28" y1="323.87" x2="793.96" y2="334.56"/><line class="cls-14" x1="793.96" y1="323.87" x2="783.28" y2="334.56"/><line class="cls-14" x1="783.28" y1="367.7" x2="793.96" y2="378.39"/><line class="cls-14" x1="793.96" y1="367.7" x2="783.28" y2="378.39"/><circle class="cls-14" cx="555.52" cy="419.03" r="7.5"/><line class="cls-14" x1="783.28" y1="413.69" x2="793.96" y2="424.37"/><line class="cls-14" x1="793.96" y1="413.69" x2="783.28" y2="424.37"/></g></g></svg>