<svg xmlns="http://www.w3.org/2000/svg" xmlns:xlink="http://www.w3.org/1999/xlink" viewBox="0 0 587.58 384.56"><defs><style>.cls-1,.cls-5{fill:none;}.cls-2{opacity:0.1;}.cls-3{clip-path:url(#clip-path);}.cls-4{fill:#02172c;}.cls-5{stroke:#f5f7f9;stroke-miterlimit:10;stroke-width:2px;}</style><clipPath id="clip-path" transform="translate(-0.43 -0.23)"><rect id="SVGID" class="cls-1" width="588.46" height="385.02"/></clipPath></defs><g id="Layer_2" data-name="Layer 2"><g id="design"><g class="cls-2"><g class="cls-3"><polygon class="cls-4" points="177.66 383.56 1.89 383.56 175.49 128.52 351.27 128.52 177.66 383.56"/><polygon class="cls-5" points="177.66 383.56 1.89 383.56 175.49 128.52 351.27 128.52 177.66 383.56"/><polygon class="cls-4" points="494.13 256.04 318.36 256.04 409.86 128.52 585.63 128.52 494.13 256.04"/><polygon class="cls-5" points="494.13 256.04 318.36 256.04 409.86 128.52 585.63 128.52 494.13 256.04"/><polygon class="cls-4" points="409.86 128.52 585.63 128.52 494.13 1 318.36 1 409.86 128.52"/><polygon class="cls-5" points="409.86 128.52 585.63 128.52 494.13 1 318.36 1 409.86 128.52"/><polygon class="cls-4" points="409.86 383.56 585.63 383.56 494.13 256.04 318.36 256.04 409.86 383.56"/><polygon class="cls-5" points="409.86 383.56 585.63 383.56 494.13 256.04 318.36 256.04 409.86 383.56"/></g></g></g></g></svg>