<svg xmlns="http://www.w3.org/2000/svg" viewBox="0 0 121.06 102.46"><defs><style>.cls-1,.cls-3{fill:none;stroke:#245885;stroke-width:3px;}.cls-1{stroke-linecap:round;stroke-linejoin:round;}.cls-2{fill:#fff;}.cls-3{stroke-miterlimit:10;}</style></defs><title>Asset 17</title><g id="Layer_2" data-name="Layer 2"><g id="Layer_1-2" data-name="Layer 1"><polygon class="cls-1" points="15.49 91.72 5.28 91.72 5.28 85.53 15.49 85.53 15.49 82.54 14.58 80.65 5.28 80.65 5.28 74.47 11.46 74.47 1.5 54.23 12.04 54.23 20.64 74.47 29.03 54.23 39.58 54.23 29.49 74.47 35.67 74.47 35.67 80.65 26.36 80.65 25.39 82.54 25.39 85.53 35.67 85.53 35.67 91.72 25.39 91.72 25.39 100.7 15.49 100.7 15.49 91.72"/><path class="cls-2" d="M52.05,27.43q2.79-9.51,7.59-15.26A27.22,27.22,0,0,1,70.79,4,37,37,0,0,1,84.26,1.5,37.46,37.46,0,0,1,97.88,4a27.65,27.65,0,0,1,11.21,8.21q4.86,5.74,7.67,15.26t2.8,23.46q0,14.36-2.8,24t-7.67,15.39A27.75,27.75,0,0,1,97.88,98.5,37.46,37.46,0,0,1,84.26,101,37,37,0,0,1,70.79,98.5a27.31,27.31,0,0,1-11.15-8.21q-4.78-5.75-7.59-15.39t-2.81-24q0-14,2.81-23.46M68.94,60.81A53,53,0,0,0,70.65,72a24,24,0,0,0,4.59,9.24q3.14,3.83,9,3.83t9.24-3.83A23.57,23.57,0,0,0,98.15,72a53,53,0,0,0,1.71-11.21q.27-5.82.27-9.92c0-1.64,0-3.63-.06-6a67.07,67.07,0,0,0-.55-7.19,67.83,67.83,0,0,0-1.37-7.32,22.16,22.16,0,0,0-2.67-6.49A14.67,14.67,0,0,0,91,19.28a12.11,12.11,0,0,0-6.71-1.77,11.74,11.74,0,0,0-6.63,1.77,14.29,14.29,0,0,0-4.38,4.66,25.26,25.26,0,0,0-2.67,6.49,49.86,49.86,0,0,0-1.36,7.32c-.28,2.47-.44,4.86-.48,7.19s-.07,4.31-.07,6q0,4.09.27,9.92"/><path class="cls-3" d="M52.05,27.43q2.79-9.51,7.59-15.26A27.22,27.22,0,0,1,70.79,4,37,37,0,0,1,84.26,1.5,37.46,37.46,0,0,1,97.88,4a27.65,27.65,0,0,1,11.21,8.21q4.86,5.74,7.67,15.26t2.8,23.46q0,14.36-2.8,24t-7.67,15.39A27.75,27.75,0,0,1,97.88,98.5,37.46,37.46,0,0,1,84.26,101,37,37,0,0,1,70.79,98.5a27.31,27.31,0,0,1-11.15-8.21q-4.78-5.75-7.59-15.39t-2.81-24Q49.24,36.92,52.05,27.43ZM68.94,60.81A53,53,0,0,0,70.65,72a24,24,0,0,0,4.59,9.24q3.14,3.83,9,3.83t9.24-3.83A23.57,23.57,0,0,0,98.15,72a53,53,0,0,0,1.71-11.21q.27-5.82.27-9.92c0-1.64,0-3.63-.06-6a67.07,67.07,0,0,0-.55-7.19,67.83,67.83,0,0,0-1.37-7.32,22.16,22.16,0,0,0-2.67-6.49A14.67,14.67,0,0,0,91,19.28a12.11,12.11,0,0,0-6.71-1.77,11.74,11.74,0,0,0-6.63,1.77,14.29,14.29,0,0,0-4.38,4.66,25.26,25.26,0,0,0-2.67,6.49,49.86,49.86,0,0,0-1.36,7.32c-.28,2.47-.44,4.86-.48,7.19s-.07,4.31-.07,6Q68.67,55,68.94,60.81Z"/></g></g></svg>